<?xml version="1.0" standalone="no"?>
<!DOCTYPE svg PUBLIC "-//W3C//DTD SVG 1.1//EN" "http://www.w3.org/Graphics/SVG/1.1/DTD/svg11.dtd" >
<svg>
<metadata>
Created by FontForge 20090622 at Wed Apr 11 10:24:21 2018
 By deploy user
(c) Copyright 2001 by Tom Truong. All Rights Reserved
</metadata>
<defs>
<font id="UVNTinTucHep" horiz-adv-x="840" >
  <font-face 
    font-family="UVN Tin Tuc Hep"
    font-weight="400"
    font-stretch="condensed"
    units-per-em="2048"
    panose-1="2 11 5 6 2 2 2 3 2 4"
    ascent="1638"
    descent="-410"
    x-height="1063"
    cap-height="1481"
    bbox="-340 -483 2179 2324"
    underline-thickness="94"
    underline-position="-131"
    unicode-range="U+0020-U+F002"
  />
<missing-glyph horiz-adv-x="1024" 
d="M128 0v2324h768v-2324h-768zM256 128h512v2068h-512v-2068z" />
    <glyph glyph-name=".notdef" horiz-adv-x="1024" 
d="M128 0v2324h768v-2324h-768zM256 128h512v2068h-512v-2068z" />
    <glyph glyph-name=".null" horiz-adv-x="0" 
 />
    <glyph glyph-name="nonmarkingreturn" horiz-adv-x="434" 
 />
    <glyph glyph-name="space" unicode=" " horiz-adv-x="434" 
 />
    <glyph glyph-name="exclam" unicode="!" horiz-adv-x="524" 
d="M182 0v182h162v-182h-162zM211 436l-35 1047h170l-33 -1047h-102z" />
    <glyph glyph-name="quotedbl" unicode="&#x22;" horiz-adv-x="569" 
d="M473 1434v-553h-102v553h102zM199 1434v-553h-101v553h101z" />
    <glyph glyph-name="numbersign" unicode="#" horiz-adv-x="1575" 
d="M975 864h-266l-97 -276h267zM918 1454l-168 -483h264l172 483h127l-170 -483h315l-37 -107h-317l-98 -276h340l-37 -109h-340l-170 -479h-129l172 479h-269l-172 -479h-127l170 479h-327l39 109h325l101 276h-353l35 107h354l173 483h127z" />
    <glyph glyph-name="dollar" unicode="$" horiz-adv-x="870" 
d="M385 889v467q-162 -13 -162 -187q0 -161 162 -280zM487 121q92 6 143 73q48 61 48 156q0 171 -191 305v-534zM385 -231v231q-285 47 -303 401h123q10 -250 180 -274v604q-274 192 -274 428q0 129 73 212t201 93v201h102v-201q255 -30 277 -356h-114q-10 209 -163 248
v-541q147 -110 214 -197q96 -123 96 -268q0 -151 -80.5 -243t-229.5 -107v-231h-102z" />
    <glyph glyph-name="percent" unicode="%" horiz-adv-x="1507" 
d="M233 -29l897 1514h113l-897 -1514h-113zM397 1372q-83 0 -140.5 -58.5t-57.5 -142.5q0 -83 57.5 -140.5t140.5 -57.5t141 57.5t58 140.5q0 84 -57.5 142.5t-141.5 58.5zM397 1485q130 0 221 -90.5t91 -220.5t-91 -221t-221 -91t-220.5 91t-90.5 221t90.5 220.5
t220.5 90.5zM1108 485q-84 0 -141.5 -57t-57.5 -141t57.5 -141.5t141.5 -57.5t141.5 57.5t57.5 141.5t-57.5 141t-141.5 57zM1108 598q130 0 220.5 -90.5t90.5 -220.5t-90.5 -221t-220.5 -91t-220.5 91t-90.5 221t90.5 220.5t220.5 90.5z" />
    <glyph glyph-name="ampersand" unicode="&#x26;" horiz-adv-x="1036" 
d="M422 920q160 152 160 311q0 160 -119 160q-121 0 -121 -170q0 -137 80 -301zM651 236q-151 185 -280 440q-158 -138 -158 -322q0 -103 57 -170q61 -71 162 -71q121 0 219 123zM1004 111l-80 -117q-100 67 -174 153q-137 -176 -336 -176q-156 0 -251 110q-91 104 -91 263
q0 208 235 465q-98 226 -98 397q0 132 61 211q67 88 195 88q117 0 189 -79q69 -77 69 -195q0 -190 -244 -434q90 -212 250 -410q60 128 68 323l137 -6q-6 -252 -107 -428q77 -88 177 -165z" />
    <glyph glyph-name="quotesingle" unicode="'" horiz-adv-x="295" 
d="M199 1434v-553h-101v553h101z" />
    <glyph glyph-name="parenleft" unicode="(" horiz-adv-x="563" 
d="M524 -162h-139q-250 403 -250 836t250 835h139q-258 -407 -258 -835q0 -427 258 -836z" />
    <glyph glyph-name="parenright" unicode=")" horiz-adv-x="563" 
d="M39 -162q258 409 258 836q0 428 -258 835h139q250 -402 250 -835t-250 -836h-139z" />
    <glyph glyph-name="asterisk" unicode="*" horiz-adv-x="1024" 
d="M340 705l-129 96l235 256l-337 71l47 150l315 -143l-29 346h140l-29 -346l315 143l47 -150l-337 -71l235 -256l-129 -96l-172 305z" />
    <glyph glyph-name="plus" unicode="+" horiz-adv-x="1706" 
d="M903 1221v-562h549v-98h-549v-561h-98v561h-551v98h551v562h98z" />
    <glyph glyph-name="comma" unicode="," horiz-adv-x="436" 
d="M145 0v186h162v-194l-121 -285h-59l90 293h-72z" />
    <glyph glyph-name="hyphen" unicode="-" horiz-adv-x="674" 
d="M92 467v127h490v-127h-490z" />
    <glyph glyph-name="hyphen" unicode="&#x2010;" horiz-adv-x="674" 
d="M92 467v127h490v-127h-490z" />
    <glyph glyph-name="period" unicode="." horiz-adv-x="436" 
d="M137 0v182h162v-182h-162z" />
    <glyph glyph-name="slash" unicode="/" horiz-adv-x="569" 
d="M-49 -190l553 1699h114l-555 -1699h-112z" />
    <glyph glyph-name="zero" unicode="0" horiz-adv-x="870" 
d="M227 735q0 -377 46 -501q49 -132 161 -132t160 131q45 122 45 502t-45 503q-48 130 -160 130t-161 -132q-46 -124 -46 -501zM84 735q0 430 81 592q84 170 269 170q187 0 272 -170q80 -162 80 -592q0 -429 -80 -590q-85 -170 -272 -170q-186 0 -270 170q-80 162 -80 590z
" />
    <glyph glyph-name="one" unicode="1" horiz-adv-x="870" 
d="M207 0v123h176v1175l-176 -12v84q143 47 235 115h82v-1362h168v-123h-485z" />
    <glyph glyph-name="two" unicode="2" horiz-adv-x="870" 
d="M90 0v127q0 42 97 213q59 106 212 319q232 324 232 482q0 97 -46 159q-51 68 -145 68q-195 0 -205 -305h-128q8 428 344 428q153 0 238 -98q81 -93 81 -248q0 -134 -117 -330q-39 -65 -239 -348q-149 -210 -193 -330h545v-137h-676z" />
    <glyph glyph-name="three" unicode="3" horiz-adv-x="870" 
d="M76 350h127q0 -244 190 -244q207 0 207 318q0 165 -86 235q-77 64 -246 64v117q312 0 312 270q0 101 -36 169q-46 87 -138 87q-149 0 -177 -199h-124q8 144 80 229q78 93 218 93q155 0 241 -118q75 -104 75 -265q0 -232 -180 -320q211 -78 211 -362q0 -186 -80 -305
q-94 -139 -271 -139q-323 0 -323 370z" />
    <glyph glyph-name="four" unicode="4" horiz-adv-x="870" 
d="M516 461l14 907h-8q-37 -126 -86 -260l-237 -647h317zM516 -25v357h-461v74l396 1064h206v-1009h154v-129h-154v-357h-141z" />
    <glyph glyph-name="five" unicode="5" horiz-adv-x="870" 
d="M113 340h126q4 -242 179 -242q125 0 180 156q37 106 37 260q0 340 -203 340q-125 0 -180 -143l-113 20l49 739h510l-14 -129h-383l-22 -434q60 66 165 66q332 0 332 -459q0 -221 -75 -360q-96 -179 -298 -179q-290 0 -290 365z" />
    <glyph glyph-name="six" unicode="6" horiz-adv-x="870" 
d="M246 771q98 128 233 128q161 0 242 -156q63 -122 63 -299q0 -190 -74 -315q-91 -154 -268 -154q-218 0 -295 271q-43 154 -43 448q0 801 369 801q125 0 199 -82.5t75 -208.5h-130q-19 174 -146 174q-219 0 -225 -607zM252 639q0 -19 -2 -56t-2 -55q0 -422 207 -422
q188 0 188 343q0 331 -188 331q-114 0 -203 -141z" />
    <glyph glyph-name="seven" unicode="7" horiz-adv-x="870" 
d="M750 1378l-170 -564h100v-111h-133l-219 -728h-148l224 728h-224v111h258l162 529h-489v127h639v-92z" />
    <glyph glyph-name="eight" unicode="8" horiz-adv-x="870" 
d="M436 852q193 141 193 313q0 89 -52.5 148t-140.5 59q-90 0 -140 -65q-46 -59 -46 -152q0 -166 186 -303zM434 711q-217 -147 -217 -342q0 -106 54 -181q60 -84 163 -84q104 0 163 82q52 74 52 181q0 200 -215 344zM309 778q-194 152 -194 371q0 152 86 246q88 98 239 98
q147 0 237.5 -89.5t90.5 -236.5q0 -218 -215 -381q244 -159 244 -419q0 -165 -100 -277q-104 -115 -267 -115q-169 0 -267 117q-91 109 -91 281q0 220 237 405z" />
    <glyph glyph-name="nine" unicode="9" horiz-adv-x="870" 
d="M614 831q4 18 4 111q0 422 -206 422q-191 0 -191 -342q0 -332 189 -332q116 0 204 141zM620 700q-97 -129 -235 -129q-161 0 -240 156q-63 122 -63 299q0 190 73 315q90 154 267 154q219 0 296 -271q44 -153 44 -448q0 -801 -371 -801q-124 0 -199 85q-71 80 -73 206h129
q18 -174 147 -174q219 0 225 608z" />
    <glyph glyph-name="colon" unicode=":" horiz-adv-x="483" 
d="M162 0v182h162v-182h-162zM162 559v182h162v-182h-162z" />
    <glyph glyph-name="semicolon" unicode=";" horiz-adv-x="483" 
d="M160 0v186h162v-194l-121 -285h-60l88 293h-69zM160 559v182h162v-182h-162z" />
    <glyph glyph-name="less" unicode="&#x3c;" horiz-adv-x="1706" 
d="M1442 1026l-1022 -416l1022 -413v-109l-1178 481v82l1178 484v-109z" />
    <glyph glyph-name="equal" unicode="=" horiz-adv-x="1706" 
d="M1452 473v-98h-1198v98h1198zM1452 846v-98h-1198v98h1198z" />
    <glyph glyph-name="greater" unicode="&#x3e;" horiz-adv-x="1706" 
d="M1442 651v-82l-1178 -481v109l1022 413l-1022 416v109z" />
    <glyph glyph-name="question" unicode="?" horiz-adv-x="702" 
d="M199 0v182h161v-182h-161zM227 440v21q0 125 20.5 207t71.5 184l98 183q56 115 56 196q0 166 -135 166q-141 0 -141 -185l-123 13q7 129 74 204q72 80 198 80q125 0 193.5 -74t68.5 -200q0 -125 -106 -304q-128 -217 -149 -292q-19 -69 -19 -199h-107z" />
    <glyph glyph-name="at" unicode="@" horiz-adv-x="2048" 
d="M1298 836l60 125h94l-139 -562q-17 -69 -17 -92q0 -92 107 -92q108 0 211 82q205 163 205 487q0 254 -197.5 417t-509.5 163q-175 0 -320 -49q-257 -88 -409 -311q-150 -218 -150 -492q0 -174 60 -305q91 -200 303 -308q191 -98 426 -98q354 0 635 193l39 -55
q-294 -222 -654 -222q-399 0 -652 207q-273 223 -273 613q0 294 179 532q175 234 458 329q166 56 360 56q162 0 308 -44q225 -68 363 -231q146 -173 146 -401q0 -352 -243 -542q-142 -111 -310 -111q-186 0 -192 151q0 5 1 15t1 14q-105 -180 -295 -180q-313 0 -313 328
q0 215 122 373q133 173 342 173q190 0 254 -163zM1272 717q-38 198 -215 198q-172 0 -271 -156q-84 -133 -84 -315q0 -105 50 -167q54 -68 157 -68q107 0 189.5 71t111.5 189z" />
    <glyph glyph-name="A" unicode="A" horiz-adv-x="901" 
d="M295 575h309l-155 775zM27 0l321 1481h209l324 -1481h-160l-86 436h-373l-86 -436h-149z" />
    <glyph glyph-name="B" unicode="B" horiz-adv-x="973" 
d="M285 135h153q305 0 305 283q0 291 -317 291h-141v-574zM285 838h141q289 0 289 270q0 143 -87 198q-69 44 -222 44h-121v-512zM133 0v1481h270q164 0 237 -24q220 -75 220 -339q0 -251 -211 -336q244 -86 244 -368q0 -414 -469 -414h-291z" />
    <glyph glyph-name="C" unicode="C" horiz-adv-x="950" 
d="M889 485v-32q0 -211 -86 -336q-99 -146 -301 -146q-418 0 -418 750q0 790 424 790q187 0 284 -144q82 -124 82 -320h-147q-16 331 -221 331q-137 0 -202 -150q-62 -145 -62 -493q0 -259 36 -390q64 -239 252 -239q222 0 222 379h137z" />
    <glyph glyph-name="D" unicode="D" horiz-adv-x="993" 
d="M295 1349v-1209q58 -5 82 -5q209 0 294 133t85 480q0 342 -84.5 474t-292.5 132q-26 0 -84 -5zM141 0v1481h275q295 0 410 -238q81 -168 81 -500q0 -334 -81 -503q-114 -240 -410 -240h-275z" />
    <glyph glyph-name="E" unicode="E" horiz-adv-x="854" 
d="M133 0v1481h666v-138h-514v-509h377v-136h-377v-561h532v-137h-684z" />
    <glyph glyph-name="F" unicode="F" horiz-adv-x="799" 
d="M133 0v1481h621v-138h-469v-509h360v-136h-360v-698h-152z" />
    <glyph glyph-name="G" unicode="G" horiz-adv-x="981" 
d="M780 0l-16 86q-97 -115 -258 -115q-422 0 -422 750q0 790 424 790q187 0 284 -144q82 -124 82 -320h-147q-16 331 -221 331q-138 0 -201 -149q-61 -144 -61 -504q0 -250 36 -382q64 -237 244 -237q112 0 170 88q49 75 49 193v174h-215v133h359v-694h-107z" />
    <glyph glyph-name="H" unicode="H" horiz-adv-x="999" 
d="M133 0v1481h152v-635h430v635h151v-1481h-151v705h-430v-705h-152z" />
    <glyph glyph-name="I" unicode="I" horiz-adv-x="428" 
d="M137 0v1481h152v-1481h-152z" />
    <glyph glyph-name="J" unicode="J" horiz-adv-x="551" 
d="M422 380q0 -148 -19 -215q-31 -114 -130 -162q-68 -34 -167 -34q-53 0 -118 13l6 141q63 -21 127 -21q84 0 117.5 53t33.5 261v1065h150v-1101z" />
    <glyph glyph-name="K" unicode="K" horiz-adv-x="909" 
d="M131 0v1481h154v-791l438 791h151l-294 -523l342 -958h-164l-277 801l-198 -357v-444h-152z" />
    <glyph glyph-name="L" unicode="L" horiz-adv-x="782" 
d="M141 0v1481h154v-1340h465v-141h-619z" />
    <glyph glyph-name="M" unicode="M" horiz-adv-x="1262" 
d="M131 0v1481h236l178 -770q48 -209 82 -451q28 207 84 449l180 772h237v-1481h-135v1376l-319 -1376h-94l-316 1376v-1376h-133z" />
    <glyph glyph-name="N" unicode="N" horiz-adv-x="1038" 
d="M268 1366v-1366h-133v1481h221l306 -840q63 -173 120 -369q-12 131 -12 293v916h133v-1481h-149l-373 1024q-63 174 -113 342z" />
    <glyph glyph-name="O" unicode="O" horiz-adv-x="985" 
d="M492 -29q-408 0 -408 770q0 768 408 768q409 0 409 -768q0 -770 -409 -770zM492 1372q-248 0 -248 -596q0 -360 59 -509q61 -156 189 -156q247 0 247 630q0 631 -247 631z" />
    <glyph glyph-name="P" unicode="P" horiz-adv-x="909" 
d="M285 803h129q301 0 301 268q0 272 -301 272h-129v-540zM133 0v1481h248q477 0 477 -402q0 -401 -477 -401h-96v-678h-152z" />
    <glyph glyph-name="Q" unicode="Q" horiz-adv-x="985" 
d="M700 43q-96 -72 -208 -72q-408 0 -408 770q0 768 408 768q409 0 409 -768q0 -394 -123 -608q66 -115 162 -121v-131q-171 27 -240 162zM631 178q-58 81 -119 97l20 120q73 -7 156 -106q51 123 51 411q0 363 -59 517.5t-188 154.5q-130 0 -189 -145.5t-59 -485.5
q0 -630 248 -630q74 0 139 67z" />
    <glyph glyph-name="R" unicode="R" horiz-adv-x="958" 
d="M285 834h129q305 0 305 258t-305 258h-129v-516zM133 0v1481h270q478 0 478 -389q0 -279 -234 -355l242 -737h-164l-223 704q-127 -4 -217 -4v-700h-152z" />
    <glyph glyph-name="S" unicode="S" horiz-adv-x="891" 
d="M74 393h143q16 -284 236 -284q103 0 162 73q55 67 55 172q0 124 -105 235q-45 48 -220 182q-143 109 -193 191q-56 92 -56 214q0 142 93 237.5t235 95.5q175 0 270 -116q86 -105 92 -285h-140q-20 274 -216 274q-92 0 -145.5 -56.5t-53.5 -149.5q0 -124 151 -248
l280 -224q151 -151 151 -344q0 -171 -95 -278q-100 -111 -269 -111q-186 0 -284 121q-88 110 -91 301z" />
    <glyph glyph-name="T" unicode="T" horiz-adv-x="782" 
d="M315 0v1354h-297v127h744v-127h-297v-1354h-150z" />
    <glyph glyph-name="U" unicode="U" horiz-adv-x="1004" 
d="M129 518v963h152v-949q0 -271 48 -347q49 -79 173 -79q121 0 171 81q48 77 48 345v949h151v-963q0 -215 -21 -297q-40 -158 -180 -217q-76 -33 -169 -33q-95 0 -171 33q-141 60 -181 217q-21 81 -21 297z" />
    <glyph glyph-name="V" unicode="V" 
d="M348 0l-338 1481h152l221 -1010q4 -17 37 -231q22 130 45 237l219 1004h145l-337 -1481h-144z" />
    <glyph glyph-name="W" unicode="W" horiz-adv-x="1268" 
d="M408 0h-136l-233 1481h139l135 -881q31 -202 35 -346q13 182 47 350l178 877h121l178 -877q36 -176 48 -350q4 152 34 346l136 881h139l-234 -1481h-135l-203 1063q-18 96 -24 200q-8 -80 -31 -239z" />
    <glyph glyph-name="X" unicode="X" horiz-adv-x="782" 
d="M-23 0l318 784l-301 697h162l219 -541l217 541h156l-285 -695l344 -786h-170l-256 629l-248 -629h-156z" />
    <glyph glyph-name="Y" unicode="Y" horiz-adv-x="772" 
d="M309 0v637l-332 844h158l254 -674l248 674h156l-328 -844v-637h-156z" />
    <glyph glyph-name="Z" unicode="Z" horiz-adv-x="756" 
d="M733 0h-704v115l536 1247h-481v119h649v-103l-540 -1243h540v-135z" />
    <glyph glyph-name="bracketleft" unicode="[" horiz-adv-x="551" 
d="M291 -84h231v-78h-362v1643h362v-78h-231v-1487z" />
    <glyph glyph-name="backslash" unicode="\" horiz-adv-x="569" 
d="M63 1509l555 -1699h-112l-557 1699h114z" />
    <glyph glyph-name="bracketright" unicode="]" horiz-adv-x="551" 
d="M260 -84v1487h-229v78h360v-1643h-360v78h229z" />
    <glyph glyph-name="asciicircum" unicode="^" horiz-adv-x="2048" 
d="M1094 1458l530 -557h-143l-457 455l-459 -455h-143l532 557h140z" />
    <glyph glyph-name="underscore" unicode="_" horiz-adv-x="1024" 
d="M1024 -383v-100h-1024v100h1024z" />
    <glyph glyph-name="grave" unicode="`" horiz-adv-x="1024" 
d="M649 1198h-106l-281 350h178z" />
    <glyph glyph-name="a" unicode="a" 
d="M573 571q-146 -32 -239 -100q-121 -87 -121 -215q0 -62 39.5 -102.5t101.5 -40.5q101 0 219 114v344zM573 96q-106 -106 -243 -106q-122 0 -191 74q-67 71 -67 194q0 322 501 449v24q0 119 -21 163q-33 69 -138 69q-137 0 -172 -201l-138 22q51 301 308 301
q170 0 242 -95q63 -83 63 -259v-485q0 -126 18 -246h-145z" />
    <glyph glyph-name="b" unicode="b" 
d="M264 240q83 -136 180 -136q170 0 170 441q0 424 -170 424q-95 0 -180 -135v-594zM123 0v1481h141v-514q100 120 209 120q170 0 241 -207q48 -137 48 -348q0 -557 -291 -557q-108 0 -207 123v-98h-141z" />
    <glyph glyph-name="c" unicode="c" horiz-adv-x="764" 
d="M557 758q-10 207 -160 207q-118 0 -158 -171q-20 -88 -20 -264q0 -179 20 -263q39 -167 160 -167q155 0 165 248h130q-1 -155 -68 -257q-79 -118 -227 -118q-323 0 -323 557t323 557q136 0 214 -99q69 -89 75 -230h-131z" />
    <glyph glyph-name="d" unicode="d" 
d="M715 0h-142v98q-98 -123 -208 -123q-289 0 -289 557q0 555 286 555q111 0 211 -120v514h142v-1481zM573 240v594q-85 135 -180 135q-170 0 -170 -424q0 -441 170 -441q97 0 180 136z" />
    <glyph glyph-name="e" unicode="e" horiz-adv-x="780" 
d="M564 348h134q-8 -158 -73 -256q-79 -119 -226 -119q-323 0 -323 557t323 557q308 0 308 -491q0 -60 -3 -84h-484q1 -170 22 -253q39 -159 157 -159q155 0 165 248zM221 631h340v41q0 293 -164 293t-176 -334z" />
    <glyph glyph-name="f" unicode="f" horiz-adv-x="483" 
d="M475 1491v-115q-42 10 -63 10q-80 0 -102 -54q-13 -30 -13 -126v-143h170v-125h-170v-938h-141v938h-160v125h160v125q0 154 30 217q45 96 179 96q64 0 110 -10z" />
    <glyph glyph-name="g" unicode="g" horiz-adv-x="760" 
d="M193 393q-93 95 -93 309q0 379 273 379q137 0 207 -96q74 96 180 96v-132q-28 5 -41 5q-52 0 -103 -47q31 -107 31 -229q0 -354 -270 -354q-16 0 -47 5t-44 5q-26 0 -52 -18q-29 -19 -29 -44q0 -48 51 -67q25 -10 121 -26q247 -44 322 -124q51 -56 51 -147
q0 -133 -126 -202q-101 -56 -245 -56q-143 0 -235 50q-117 63 -117 194q0 114 151 208q-106 56 -106 136q0 84 121 155zM311 61q-145 -56 -145 -157q0 -137 219 -137q233 0 233 133q0 126 -307 161zM377 965q-95 0 -129 -91q-21 -56 -21 -172q0 -114 21 -170q34 -90 129 -90
q143 0 143 260q0 263 -143 263z" />
    <glyph glyph-name="h" unicode="h" horiz-adv-x="846" 
d="M127 0v1481h141v-529q123 138 254 138q203 0 203 -275v-815h-141v768q0 91 -16 132q-27 65 -103 65q-103 0 -197 -140v-825h-141z" />
    <glyph glyph-name="i" unicode="i" horiz-adv-x="389" 
d="M123 1313v168h143v-168h-143zM123 0v1063h143v-1063h-143z" />
    <glyph glyph-name="j" unicode="j" horiz-adv-x="389" 
d="M123 1313v168h143v-168h-143zM266 -78q0 -136 -30 -194q-43 -84 -164 -84q-31 0 -99 8v117q24 -5 50 -5q57 0 78.5 33t21.5 160v1106h143v-1141z" />
    <glyph glyph-name="k" unicode="k" horiz-adv-x="768" 
d="M266 553l279 510h143l-192 -348l243 -715h-151l-182 573l-140 -254v-319h-143v1481h143v-928z" />
    <glyph glyph-name="l" unicode="l" horiz-adv-x="389" 
d="M123 0v1481h143v-1481h-143z" />
    <glyph glyph-name="m" unicode="m" horiz-adv-x="1303" 
d="M127 0v1063h141v-111q123 138 252 138q135 0 197 -142q136 142 260 142q205 0 205 -275v-815h-144v768q0 92 -15 131q-25 66 -101 66q-105 0 -197 -140v-825h-143v768q0 92 -15 131q-26 66 -102 66q-103 0 -197 -140v-825h-141z" />
    <glyph glyph-name="n" unicode="n" horiz-adv-x="846" 
d="M127 0v1063h141v-111q123 138 252 138q205 0 205 -275v-815h-141v768q0 93 -16 132q-26 65 -103 65q-113 0 -197 -140v-825h-141z" />
    <glyph glyph-name="o" unicode="o" horiz-adv-x="782" 
d="M217 530q0 -177 19 -261q39 -169 157 -169q170 0 170 430q0 433 -170 433q-118 0 -157 -170q-19 -85 -19 -263zM72 530q0 557 323 557q316 0 316 -557t-316 -557q-323 0 -323 557z" />
    <glyph glyph-name="p" unicode="p" 
d="M270 834v-594q88 -136 181 -136q170 0 170 441q0 424 -170 424q-94 0 -181 -135zM127 -356v1419h96l47 -96q100 120 209 120q170 0 241 -207q48 -137 48 -348q0 -557 -291 -557q-108 0 -207 123v-454h-143z" />
    <glyph glyph-name="q" unicode="q" 
d="M569 834q-85 135 -180 135q-170 0 -170 -424q0 -441 170 -441q94 0 180 136v594zM711 -356h-142v454q-99 -123 -207 -123q-290 0 -290 557q0 555 286 555q111 0 211 -120l47 96h95v-1419z" />
    <glyph glyph-name="r" unicode="r" horiz-adv-x="539" 
d="M123 0v1063h143v-123q103 145 242 145q5 0 15.5 -1t15.5 -1v-137q-5 0 -15.5 1t-15.5 1q-155 0 -242 -166v-782h-143z" />
    <glyph glyph-name="s" unicode="s" horiz-adv-x="770" 
d="M74 258l135 31q12 -83 56 -136q51 -61 130 -61q71 0 113.5 46t42.5 118q0 110 -192 240q-124 84 -171 133q-84 89 -84 192q0 115 75 190.5t190 75.5q234 0 299 -253l-121 -37q-44 174 -172 174q-59 0 -97 -36t-38 -95q0 -91 187 -218q142 -96 184 -142q79 -88 79 -214
q0 -137 -84.5 -214t-222.5 -77q-126 0 -209 80q-80 76 -100 203z" />
    <glyph glyph-name="t" unicode="t" horiz-adv-x="492" 
d="M154 940h-142v123h142v354h139v-354h190v-123h-190v-682q0 -77 12 -107q20 -51 84 -51q-22 0 94 14v-118q-88 -23 -139 -23q-190 0 -190 207v760z" />
    <glyph glyph-name="u" unicode="u" horiz-adv-x="846" 
d="M721 1063v-1063h-141v111q-123 -138 -252 -138q-205 0 -205 273v817h141v-768q0 -93 16 -132q26 -65 103 -65q111 0 197 140v825h141z" />
    <glyph glyph-name="v" unicode="v" horiz-adv-x="776" 
d="M293 0l-260 1063h143l215 -911l221 911h133l-262 -1063h-190z" />
    <glyph glyph-name="w" unicode="w" horiz-adv-x="1128" 
d="M254 0l-213 1063h137l129 -698q7 -40 19 -158q8 91 22 155l152 701h131l155 -700q10 -43 19 -156q2 53 14 157l129 699h139l-217 -1063h-125l-167 788q-7 31 -11 119q-6 -66 -18 -120l-170 -787h-125z" />
    <glyph glyph-name="x" unicode="x" horiz-adv-x="662" 
d="M6 0l246 539l-240 524h148l159 -373l173 373h135l-232 -506l267 -557h-150l-182 408l-189 -408h-135z" />
    <glyph glyph-name="y" unicode="y" horiz-adv-x="711" 
d="M18 1063h148l184 -801l180 801h142l-248 -1059q-41 -175 -108 -257q-87 -105 -246 -105q-31 0 -45 2v131q12 -2 36 -2q182 0 228 239z" />
    <glyph glyph-name="z" unicode="z" horiz-adv-x="680" 
d="M49 0v109l424 833h-385v121h541v-100l-428 -844h428v-119h-580z" />
    <glyph glyph-name="braceleft" unicode="{" horiz-adv-x="1024" 
d="M854 1370q-168 0 -214 -49.5t-46 -204.5v-242q0 -145 -30 -213q-43 -95 -167 -131q109 -31 154 -104t45 -262q0 -33 -1.5 -98.5t-1.5 -96.5q0 -178 46 -229q34 -36 101 -45q23 -2 114 -2v-107h-47q-205 0 -275 84q-61 74 -61 285v244q0 154 -57 217q-40 44 -112 56
q-32 5 -128 5v109q7 0 22 -1t23 -1q143 0 200 70q52 63 52 210v242q0 223 70 297t313 74v-107z" />
    <glyph glyph-name="bar" unicode="|" horiz-adv-x="1024" 
d="M567 1565v-2048h-108v2048h108z" />
    <glyph glyph-name="braceright" unicode="}" horiz-adv-x="1024" 
d="M852 586v-109q-7 0 -22 1t-23 1q-143 0 -200 -70q-52 -63 -52 -210v-244q0 -223 -69.5 -296t-313.5 -73v107q169 0 215 49.5t46 229.5q0 31 -1.5 97t-1.5 99q0 187 44.5 259t154.5 103q-110 32 -154.5 104t-44.5 261q0 33 1.5 99.5t1.5 97.5q0 180 -46 231
q-34 36 -101 45q-23 2 -114 2v107h47q204 0 274 -85q62 -76 62 -286v-242q0 -154 57 -217q40 -44 112 -56q34 -5 128 -5z" />
    <glyph glyph-name="asciitilde" unicode="~" horiz-adv-x="1706" 
d="M1530 637q-203 -143 -387 -143q-101 0 -289.5 68.5t-288.5 68.5q-158 0 -387 -160v113q211 145 387 145q101 0 291.5 -69.5t286.5 -69.5q162 0 387 160v-113z" />
    <glyph glyph-name="exclamdown" unicode="&#xa1;" horiz-adv-x="524" 
d="M311 1047l35 -1047h-170l35 1047h100zM342 1483v-185h-162v185h162z" />
    <glyph glyph-name="cent" unicode="&#xa2;" horiz-adv-x="870" 
d="M455 979h-19q-98 0 -141 -102q-41 -98 -41 -369q0 -246 70 -346zM619 758q-4 154 -78 196l-135 -837q24 -6 49 -6q150 0 158 260h118q-14 -372 -295 -372q-23 0 -47 3l-49 -297h-90l51 330q-176 98 -176 520q0 234 59 358q83 174 289 174l41 259h90l-43 -269
q160 -47 172 -319h-114z" />
    <glyph glyph-name="sterling" unicode="&#xa3;" horiz-adv-x="870" 
d="M72 -16v147q170 92 170 369q0 74 -13 176h-157v108h137q-55 294 -55 369q0 144 70 237q78 103 218 103q324 0 324 -418l-131 1q-6 294 -186 294q-162 0 -162 -192q0 -50 48 -320q5 -24 13 -73l207 -1v-108h-188q10 -82 10 -170q0 -131 -43 -252q89 -131 203 -131
q89 0 121 95q18 52 22 169h133v-8q0 -402 -262 -402q-128 0 -270 158q-79 -115 -209 -151z" />
    <glyph glyph-name="currency" unicode="&#xa4;" horiz-adv-x="870" 
d="M35 901h80q13 326 94 459q82 137 252 137q177 0 260 -146q58 -103 78 -307h-144q-26 324 -194 324q-101 0 -150 -104q-47 -99 -55 -363h367l-25 -80h-344v-149h338l-25 -80l-311 -1q7 -278 54 -380q48 -109 151 -109q117 0 164 143q23 71 34 240h146q-17 -225 -72 -338
q-84 -172 -272 -172q-173 0 -256 142q-81 138 -92 475h-115l25 80h88v149h-101z" />
    <glyph glyph-name="yen" unicode="&#xa5;" horiz-adv-x="772" 
d="M782 1470l-209 -530h185v-80h-215l-60 -149h275v-80h-303v-631h-133v631h-304v80h271l-60 149h-211v80h181l-205 530h141l254 -671l248 671h145z" />
    <glyph glyph-name="brokenbar" unicode="&#xa6;" horiz-adv-x="1024" 
d="M567 408v-758h-108v758h108zM567 1432v-758h-108v758h108z" />
    <glyph glyph-name="section" unicode="&#xa7;" horiz-adv-x="1024" 
d="M268 827q0 -36 26 -82q46 -83 149 -187q123 -122 194 -122q48 0 80.5 31.5t32.5 79.5q0 41 -30 93q-28 48 -112 139t-130 124q-53 37 -93 37q-46 0 -81.5 -33.5t-35.5 -79.5zM201 0l102 74q92 -133 203 -133q58 0 98.5 36t40.5 93q0 76 -131 222l-244 263
q-131 156 -131 254q0 221 230 221q-121 134 -121 244q0 108 76 173q72 62 182 62q185 0 285 -172l-101 -71q-82 129 -178 129q-55 0 -93 -30q-40 -33 -40 -87q0 -40 35 -92q31 -47 165 -182q304 -306 304 -459q0 -95 -68 -151q-63 -51 -161 -54q120 -138 120 -268
q0 -120 -78 -188q-74 -64 -196 -64q-186 0 -299 180z" />
    <glyph glyph-name="dieresis" unicode="&#xa8;" horiz-adv-x="1024" 
d="M592 1264v186h160v-186h-160zM272 1264v186h160v-186h-160z" />
    <glyph glyph-name="copyright" unicode="&#xa9;" horiz-adv-x="1706" 
d="M1073 915q-38 168 -217 168q-138 0 -205 -118q-53 -94 -53 -244q0 -145 55 -239q68 -115 203 -115q89 0 151 50.5t78 137.5h115q-12 -132 -116 -211q-97 -74 -234 -74q-191 0 -292 138q-89 121 -89 319q0 192 98 315q106 134 293 134q128 0 219 -66q98 -72 111 -195h-117
zM1505 723q0 273 -190 463t-463 190q-270 0 -460.5 -191.5t-190.5 -461.5q0 -267 192 -459t459 -192q272 0 462.5 189.5t190.5 461.5zM852 1456q307 0 520 -213t213 -520q0 -150 -53 -281q-83 -201 -272.5 -326.5t-407.5 -125.5q-301 0 -516 216t-215 517q0 303 214.5 518
t516.5 215z" />
    <glyph glyph-name="ordfeminine" unicode="&#xaa;" horiz-adv-x="631" 
d="M430 1139q-270 -56 -270 -219q0 -45 30.5 -73t75.5 -28q78 0 164 80v240zM430 807q-78 -74 -182 -74q-89 0 -142 49.5t-53 137.5q0 224 377 315v16q0 85 -17 116q-25 46 -102 46q-101 0 -129 -141l-104 16q37 211 231 211q125 0 179 -63q51 -58 51 -185v-340
q0 -88 12 -172h-109z" />
    <glyph glyph-name="guillemotleft" unicode="&#xab;" horiz-adv-x="813" 
d="M438 842l-235 -312l237 -311h-125l-241 311l241 312h123zM735 842l-235 -312l237 -311h-125l-241 311l243 312h121z" />
    <glyph glyph-name="logicalnot" unicode="&#xac;" horiz-adv-x="1706" 
d="M1452 858v-502h-96v402h-1102v100h1198z" />
    <glyph glyph-name="registered" unicode="&#xae;" horiz-adv-x="1706" 
d="M850 1071h-158v-303h158q111 0 162 21q80 32 80 126q0 156 -242 156zM874 1157q349 0 349 -233q0 -90 -54.5 -149.5t-144.5 -72.5l188 -389h-145l-178 371h-197v-371h-127v844h309zM1505 721q0 276 -188.5 465.5t-464.5 189.5q-268 0 -459.5 -192.5t-191.5 -460.5
q0 -267 192 -459t459 -192q272 0 462.5 189t190.5 460zM852 1456q308 0 520.5 -212.5t212.5 -520.5q0 -150 -53 -281q-83 -201 -272.5 -326.5t-407.5 -125.5q-301 0 -516 216t-215 517q0 303 214.5 518t516.5 215z" />
    <glyph glyph-name="degree" unicode="&#xb0;" horiz-adv-x="674" 
d="M545 1174q0 87 -60 147.5t-147 60.5t-148 -60.5t-61 -147.5t60.5 -147t148.5 -60t147.5 59.5t59.5 147.5zM338 1452q116 0 196 -81t80 -197t-81 -197.5t-197 -81.5q-118 0 -197.5 80.5t-79.5 198.5q0 117 81 197.5t198 80.5z" />
    <glyph glyph-name="plusminus" unicode="&#xb1;" horiz-adv-x="1706" 
d="M1452 150v-99h-1198v99h1198zM903 1169v-348h549v-98h-549v-348h-98v348h-551v98h551v348h98z" />
    <glyph glyph-name="twosuperior" unicode="&#xb2;" horiz-adv-x="575" 
d="M59 588v76q0 25 62 124l176 237q119 163 119 247q0 137 -125 137q-128 0 -136 -184h-85q6 258 227 258q98 0 154.5 -55.5t56.5 -153.5q0 -106 -150 -301q-185 -238 -213 -303h361v-82h-447z" />
    <glyph glyph-name="threesuperior" unicode="&#xb3;" horiz-adv-x="575" 
d="M49 799h84q0 -148 127 -148q135 0 135 191q0 103 -61 145q-50 35 -158 35v70q207 0 207 161q0 154 -115 154q-97 0 -117 -119h-81q13 193 196 193q99 0 156 -66q53 -63 53 -164q0 -137 -119 -192q140 -46 140 -217q0 -116 -57 -188q-62 -79 -175 -79q-215 0 -215 224z
" />
    <glyph glyph-name="acute" unicode="&#xb4;" horiz-adv-x="1024" 
d="M375 1198l209 350h178l-281 -350h-106z" />
    <glyph glyph-name="paragraph" unicode="&#xb6;" horiz-adv-x="1024" 
d="M940 1409h-127v-1409h-82v1409h-186v-1409h-84v782q-164 7 -266 94q-111 94 -111 254q0 166 116 261q108 88 277 88h463v-70z" />
    <glyph glyph-name="cedilla" unicode="&#xb8;" horiz-adv-x="1024" 
d="M262 -424v88q164 -37 246 -37q121 0 121 84q0 100 -136 100q-22 0 -53 -3v192h72v-106q248 0 248 -177q0 -182 -246 -182q-94 0 -252 41z" />
    <glyph glyph-name="onesuperior" unicode="&#xb9;" horiz-adv-x="573" 
d="M137 588v74h117v704l-117 -6v49q90 27 156 70h53v-817h111v-74h-320z" />
    <glyph glyph-name="ordmasculine" unicode="&#xba;" horiz-adv-x="588" 
d="M164 1110q0 -127 14 -186q29 -115 117 -115q127 0 127 301q0 303 -127 303q-88 0 -117 -116q-14 -59 -14 -187zM53 1110q0 391 244 391q235 0 235 -391q0 -389 -235 -389q-244 0 -244 389z" />
    <glyph glyph-name="guillemotright" unicode="&#xbb;" horiz-adv-x="813" 
d="M373 842h123l241 -312l-241 -311h-125l237 311zM74 842h123l243 -312l-241 -311h-125l235 311z" />
    <glyph glyph-name="onequarter" unicode="&#xbc;" horiz-adv-x="1438" 
d="M1217 258l8 508h-4q-30 -82 -205 -508h201zM1217 -14v200h-291v41l250 596h129v-565h96v-72h-96v-200h-88zM209 -29l903 1514h109l-904 -1514h-108zM131 647v70h111v657l-111 -6v47q92 26 148 64h51v-762h106v-70h-305z" />
    <glyph glyph-name="onehalf" unicode="&#xbd;" horiz-adv-x="1438" 
d="M948 0v72q21 55 61 119l167 218q112 150 112 230q0 127 -121 127q-123 0 -129 -170h-79q6 240 217 240q91 0 145.5 -52t54.5 -143q0 -97 -146 -283q-175 -222 -200 -280h344v-78h-426zM209 -29l903 1514h109l-904 -1514h-108zM131 647v70h111v657l-111 -6v47
q92 26 148 64h51v-762h106v-70h-305z" />
    <glyph glyph-name="threequarters" unicode="&#xbe;" horiz-adv-x="1440" 
d="M1217 258l8 508h-4q-30 -82 -205 -508h201zM1217 -14v200h-291v41l250 596h129v-565h96v-72h-96v-200h-88zM209 -29l903 1514h109l-904 -1514h-108zM47 844h80q0 -137 121 -137q131 0 131 178q0 168 -209 168v65q195 0 195 152q0 143 -109 143q-95 0 -111 -112l-79 -1
q13 181 188 181q94 0 148 -61q51 -59 51 -154q0 -130 -113 -179q133 -44 133 -202q0 -109 -55 -177q-59 -73 -166 -73q-205 0 -205 209z" />
    <glyph glyph-name="questiondown" unicode="&#xbf;" horiz-adv-x="702" 
d="M461 1040q2 -22 2 -57q0 -137 -64 -285l-120 -234q-64 -127 -64 -214q0 -166 135 -166q142 0 142 184l114 -12q-2 -129 -67 -205q-70 -80 -197 -80q-125 0 -194 76q-68 73 -68 199q0 123 106 303q128 218 149 294q20 69 19 197h107zM489 1481v-183h-161v183h161z" />
    <glyph glyph-name="Agrave" unicode="&#xc0;" horiz-adv-x="901" 
d="M295 575h309l-155 775zM27 0l321 1481h209l324 -1481h-160l-86 436h-373l-86 -436h-149zM588 1620h-106l-281 350h178z" />
    <glyph glyph-name="Aacute" unicode="&#xc1;" horiz-adv-x="901" 
d="M295 575h309l-155 775zM27 0l321 1481h209l324 -1481h-160l-86 436h-373l-86 -436h-149zM314 1620l209 350h178l-281 -350h-106z" />
    <glyph glyph-name="Acircumflex" unicode="&#xc2;" horiz-adv-x="901" 
d="M295 575h309l-155 775zM27 0l321 1481h209l324 -1481h-160l-86 436h-373l-86 -436h-149zM164 1550l197 350h178l197 -350h-107l-178 244l-180 -244h-107z" />
    <glyph glyph-name="Atilde" unicode="&#xc3;" horiz-adv-x="901" 
d="M295 575h309l-155 775zM27 0l321 1481h209l324 -1481h-160l-86 436h-373l-86 -436h-149zM742 1888q-50 -192 -199 -192q-35 0 -99 23.5t-99 23.5q-68 0 -97 -64h-88q45 187 199 187q35 0 99 -23.5t99 -23.5q73 0 97 69h88z" />
    <glyph glyph-name="Adieresis" unicode="&#xc4;" horiz-adv-x="901" 
d="M295 575h309l-155 775zM27 0l321 1481h209l324 -1481h-160l-86 436h-373l-86 -436h-149zM531 1686v186h160v-186h-160zM211 1686v186h160v-186h-160z" />
    <glyph glyph-name="Aring" unicode="&#xc5;" horiz-adv-x="901" 
d="M315 1708q0 -60 42 -101.5t102 -41.5t100.5 41.5t40.5 101.5t-40.5 100.5t-100.5 40.5q-61 0 -102.5 -40t-41.5 -101zM295 575h309l-155 838zM27 0l321 1481q-139 79 -139 227q0 105 71.5 176.5t176.5 71.5t176.5 -71.5t71.5 -176.5q0 -163 -148 -227l324 -1481h-160
l-86 436h-373l-86 -436h-149z" />
    <glyph glyph-name="AE" unicode="&#xc6;" horiz-adv-x="1386" 
d="M-10 0l583 1481h758v-135h-514v-512h377v-136h-377v-561h533v-137h-684v426h-361l-168 -426h-147zM360 565h306l6 781h-25z" />
    <glyph glyph-name="Ccedilla" unicode="&#xc7;" horiz-adv-x="950" 
d="M889 485v-32q0 -211 -86 -336q-99 -146 -301 -146q-418 0 -418 750q0 790 424 790q187 0 284 -144q82 -124 82 -320h-147q-16 331 -221 331q-137 0 -202 -150q-62 -145 -62 -493q0 -259 36 -390q64 -239 252 -239q222 0 222 379h137zM239 -424v88q164 -37 246 -37
q121 0 121 84q0 100 -136 100q-22 0 -53 -3v192h72v-106q248 0 248 -177q0 -182 -246 -182q-94 0 -252 41z" />
    <glyph glyph-name="Egrave" unicode="&#xc8;" horiz-adv-x="854" 
d="M133 0v1481h666v-138h-514v-509h377v-136h-377v-561h532v-137h-684zM604 1620h-106l-281 350h178z" />
    <glyph glyph-name="Eacute" unicode="&#xc9;" horiz-adv-x="854" 
d="M133 0v1481h666v-138h-514v-509h377v-136h-377v-561h532v-137h-684zM330 1620l209 350h178l-281 -350h-106z" />
    <glyph glyph-name="Ecircumflex" unicode="&#xca;" horiz-adv-x="854" 
d="M133 0v1481h666v-138h-514v-509h377v-136h-377v-561h532v-137h-684zM174 1550l197 350h178l197 -350h-107l-178 244l-180 -244h-107z" />
    <glyph glyph-name="Edieresis" unicode="&#xcb;" horiz-adv-x="854" 
d="M133 0v1481h666v-138h-514v-509h377v-136h-377v-561h532v-137h-684zM547 1686v186h160v-186h-160zM227 1686v186h160v-186h-160z" />
    <glyph glyph-name="Igrave" unicode="&#xcc;" horiz-adv-x="428" 
d="M137 0v1481h152v-1481h-152zM352 1620h-106l-281 350h178z" />
    <glyph glyph-name="Iacute" unicode="&#xcd;" horiz-adv-x="428" 
d="M137 0v1481h152v-1481h-152zM78 1620l209 350h178l-281 -350h-106z" />
    <glyph glyph-name="Icircumflex" unicode="&#xce;" horiz-adv-x="428" 
d="M137 0v1481h152v-1481h-152zM-72 1620l197 350h178l197 -350h-107l-178 244l-180 -244h-107z" />
    <glyph glyph-name="Idieresis" unicode="&#xcf;" horiz-adv-x="428" 
d="M137 0v1481h152v-1481h-152zM295 1686v186h160v-186h-160zM-25 1686v186h160v-186h-160z" />
    <glyph glyph-name="Eth" unicode="&#xd0;" horiz-adv-x="1004" 
d="M303 1349v-515h207v-111h-207v-583q58 -5 82 -5q210 0 295.5 133t85.5 480q0 341 -85 473.5t-294 132.5q-26 0 -84 -5zM152 0v723h-112v111h112v647h274q295 0 409 -238q80 -168 80 -500q0 -335 -79 -503q-114 -240 -410 -240h-274z" />
    <glyph glyph-name="Ntilde" unicode="&#xd1;" horiz-adv-x="1038" 
d="M268 1366v-1366h-133v1481h221l306 -840q63 -173 120 -369q-12 131 -12 293v916h133v-1481h-149l-373 1024q-63 174 -113 342zM811 1888q-50 -192 -199 -192q-35 0 -99 23.5t-99 23.5q-68 0 -97 -64h-88q45 187 199 187q35 0 99 -23.5t99 -23.5q73 0 97 69h88z" />
    <glyph glyph-name="Ograve" unicode="&#xd2;" horiz-adv-x="985" 
d="M492 -29q-408 0 -408 770q0 768 408 768q409 0 409 -768q0 -770 -409 -770zM492 1372q-248 0 -248 -596q0 -360 59 -509q61 -156 189 -156q247 0 247 630q0 631 -247 631zM631 1620h-106l-281 350h178z" />
    <glyph glyph-name="Oacute" unicode="&#xd3;" horiz-adv-x="985" 
d="M492 -29q-408 0 -408 770q0 768 408 768q409 0 409 -768q0 -770 -409 -770zM492 1372q-248 0 -248 -596q0 -360 59 -509q61 -156 189 -156q247 0 247 630q0 631 -247 631zM357 1620l209 350h178l-281 -350h-106z" />
    <glyph glyph-name="Ocircumflex" unicode="&#xd4;" horiz-adv-x="985" 
d="M492 -29q-408 0 -408 770q0 768 408 768q409 0 409 -768q0 -770 -409 -770zM492 1372q-248 0 -248 -596q0 -360 59 -509q61 -156 189 -156q247 0 247 630q0 631 -247 631zM204 1550l197 350h178l197 -350h-107l-178 244l-180 -244h-107z" />
    <glyph glyph-name="Otilde" unicode="&#xd5;" horiz-adv-x="985" 
d="M492 -29q-408 0 -408 770q0 768 408 768q409 0 409 -768q0 -770 -409 -770zM492 1372q-248 0 -248 -596q0 -360 59 -509q61 -156 189 -156q247 0 247 630q0 631 -247 631zM785 1888q-50 -192 -199 -192q-35 0 -99 23.5t-99 23.5q-68 0 -97 -64h-88q45 187 199 187
q35 0 99 -23.5t99 -23.5q73 0 97 69h88z" />
    <glyph glyph-name="Odieresis" unicode="&#xd6;" horiz-adv-x="985" 
d="M492 -29q-408 0 -408 770q0 768 408 768q409 0 409 -768q0 -770 -409 -770zM492 1372q-248 0 -248 -596q0 -360 59 -509q61 -156 189 -156q247 0 247 630q0 631 -247 631zM574 1686v186h160v-186h-160zM254 1686v186h160v-186h-160z" />
    <glyph glyph-name="multiply" unicode="&#xd7;" horiz-adv-x="1706" 
d="M856 680l481 481l70 -69l-481 -482l481 -481l-70 -70l-481 482l-481 -482l-70 70l481 481l-481 482l70 69z" />
    <glyph glyph-name="Oslash" unicode="&#xd8;" horiz-adv-x="985" 
d="M98 -137l113 268q-127 186 -127 602q0 776 408 776q143 0 225 -88l67 164l97 -43l-93 -219q113 -182 113 -616q0 -736 -418 -736q-118 0 -198 74l-90 -229zM285 322l372 946q-56 104 -165 104q-130 0 -189 -145.5t-59 -485.5q0 -241 41 -419zM344 195q51 -84 148 -84
q249 0 249 641q0 178 -32 366z" />
    <glyph glyph-name="Ugrave" unicode="&#xd9;" horiz-adv-x="1004" 
d="M129 518v963h152v-949q0 -271 48 -347q49 -79 173 -79q121 0 171 81q48 77 48 345v949h151v-963q0 -215 -21 -297q-40 -158 -180 -217q-76 -33 -169 -33q-95 0 -171 33q-141 60 -181 217q-21 81 -21 297zM639 1620h-106l-281 350h178z" />
    <glyph glyph-name="Uacute" unicode="&#xda;" horiz-adv-x="1004" 
d="M129 518v963h152v-949q0 -271 48 -347q49 -79 173 -79q121 0 171 81q48 77 48 345v949h151v-963q0 -215 -21 -297q-40 -158 -180 -217q-76 -33 -169 -33q-95 0 -171 33q-141 60 -181 217q-21 81 -21 297zM365 1620l209 350h178l-281 -350h-106z" />
    <glyph glyph-name="Ucircumflex" unicode="&#xdb;" horiz-adv-x="1004" 
d="M129 518v963h152v-949q0 -271 48 -347q49 -79 173 -79q121 0 171 81q48 77 48 345v949h151v-963q0 -215 -21 -297q-40 -158 -180 -217q-76 -33 -169 -33q-95 0 -171 33q-141 60 -181 217q-21 81 -21 297zM215 1620l197 350h178l197 -350h-107l-178 244l-180 -244h-107z
" />
    <glyph glyph-name="Udieresis" unicode="&#xdc;" horiz-adv-x="1004" 
d="M129 518v963h152v-949q0 -271 48 -347q49 -79 173 -79q121 0 171 81q48 77 48 345v949h151v-963q0 -215 -21 -297q-40 -158 -180 -217q-76 -33 -169 -33q-95 0 -171 33q-141 60 -181 217q-21 81 -21 297zM582 1686v186h160v-186h-160zM262 1686v186h160v-186h-160z" />
    <glyph glyph-name="Yacute" unicode="&#xdd;" horiz-adv-x="772" 
d="M309 0v637l-332 844h158l254 -674l248 674h156l-328 -844v-637h-156zM250 1620l209 350h178l-281 -350h-106z" />
    <glyph glyph-name="Thorn" unicode="&#xde;" horiz-adv-x="915" 
d="M285 1049v-541h129q301 0 301 268q0 273 -301 273h-129zM285 0h-152v1481h152v-295h149q197 0 309 -103q115 -106 115 -301q0 -401 -477 -401h-96v-381z" />
    <glyph glyph-name="germandbls" unicode="&#xdf;" horiz-adv-x="864" 
d="M121 0v1079q0 404 299 404q313 0 313 -359q0 -217 -155 -297q202 -87 202 -405q0 -440 -278 -440q-62 0 -117 19v136q49 -33 107 -33q147 0 147 342q0 304 -219 310v128q176 9 176 251q0 229 -174 229q-158 0 -158 -274v-1090h-143z" />
    <glyph glyph-name="agrave" unicode="&#xe0;" 
d="M573 571q-146 -32 -239 -100q-121 -87 -121 -215q0 -62 39.5 -102.5t101.5 -40.5q101 0 219 114v344zM573 96q-106 -106 -243 -106q-122 0 -191 74q-67 71 -67 194q0 322 501 449v24q0 119 -21 163q-33 69 -138 69q-137 0 -172 -201l-138 22q51 301 308 301
q170 0 242 -95q63 -83 63 -259v-485q0 -126 18 -246h-145zM569 1198h-106l-281 350h178z" />
    <glyph glyph-name="aacute" unicode="&#xe1;" 
d="M573 571q-146 -32 -239 -100q-121 -87 -121 -215q0 -62 39.5 -102.5t101.5 -40.5q101 0 219 114v344zM573 96q-106 -106 -243 -106q-122 0 -191 74q-67 71 -67 194q0 322 501 449v24q0 119 -21 163q-33 69 -138 69q-137 0 -172 -201l-138 22q51 301 308 301
q170 0 242 -95q63 -83 63 -259v-485q0 -126 18 -246h-145zM295 1198l209 350h178l-281 -350h-106z" />
    <glyph glyph-name="acircumflex" unicode="&#xe2;" 
d="M573 571q-146 -32 -239 -100q-121 -87 -121 -215q0 -62 39.5 -102.5t101.5 -40.5q101 0 219 114v344zM573 96q-106 -106 -243 -106q-122 0 -191 74q-67 71 -67 194q0 322 501 449v24q0 119 -21 163q-33 69 -138 69q-137 0 -172 -201l-138 22q51 301 308 301
q170 0 242 -95q63 -83 63 -259v-485q0 -126 18 -246h-145zM140 1198l197 350h178l197 -350h-107l-178 244l-180 -244h-107z" />
    <glyph glyph-name="atilde" unicode="&#xe3;" 
d="M573 571q-146 -32 -239 -100q-121 -87 -121 -215q0 -62 39.5 -102.5t101.5 -40.5q101 0 219 114v344zM573 96q-106 -106 -243 -106q-122 0 -191 74q-67 71 -67 194q0 322 501 449v24q0 119 -21 163q-33 69 -138 69q-137 0 -172 -201l-138 22q51 301 308 301
q170 0 242 -95q63 -83 63 -259v-485q0 -126 18 -246h-145zM723 1466q-50 -192 -199 -192q-35 0 -99 23.5t-99 23.5q-68 0 -97 -64h-88q45 187 199 187q35 0 99 -23.5t99 -23.5q73 0 97 69h88z" />
    <glyph glyph-name="adieresis" unicode="&#xe4;" 
d="M573 571q-146 -32 -239 -100q-121 -87 -121 -215q0 -62 39.5 -102.5t101.5 -40.5q101 0 219 114v344zM573 96q-106 -106 -243 -106q-122 0 -191 74q-67 71 -67 194q0 322 501 449v24q0 119 -21 163q-33 69 -138 69q-137 0 -172 -201l-138 22q51 301 308 301
q170 0 242 -95q63 -83 63 -259v-485q0 -126 18 -246h-145zM512 1264v186h160v-186h-160zM192 1264v186h160v-186h-160z" />
    <glyph glyph-name="aring" unicode="&#xe5;" 
d="M188 1403q0 105 71.5 176.5t176.5 71.5t176.5 -71.5t71.5 -176.5q0 -106 -71 -177t-177 -71q-105 0 -176.5 71.5t-71.5 176.5zM293 1401q0 -60 41.5 -100.5t101.5 -40.5t101 40.5t41 100.5t-41 101.5t-101 41.5q-61 0 -102 -41t-41 -102zM573 96q-106 -106 -243 -106
q-122 0 -191 74q-67 71 -67 194q0 322 501 449v24q0 119 -21 163q-33 69 -138 69q-137 0 -172 -201l-138 22q51 301 308 301q170 0 242 -95q63 -83 63 -259v-485q0 -126 18 -246h-145zM573 571q-146 -32 -239 -100q-121 -87 -121 -215q0 -62 39.5 -102.5t101.5 -40.5
q101 0 219 114v344z" />
    <glyph glyph-name="ae" unicode="&#xe6;" horiz-adv-x="1276" 
d="M637 123q-160 -146 -318 -146q-116 0 -183 80q-64 75 -64 193q0 321 501 450q2 13 2 64q0 197 -153 197q-145 0 -180 -203l-138 22q54 307 324 307q156 0 238 -110q90 110 229 110q305 0 305 -491q0 -54 -2 -84h-485q0 -412 182 -412q154 0 164 248h133q-8 -157 -72 -254
q-78 -117 -225 -117q-163 0 -258 146zM715 633h341q3 17 3 59q0 273 -168 273q-170 0 -176 -332zM573 565q-146 -33 -239 -101q-121 -88 -121 -216q0 -63 39 -104.5t102 -41.5q106 0 219 115v348z" />
    <glyph glyph-name="ccedilla" unicode="&#xe7;" horiz-adv-x="764" 
d="M557 758q-10 207 -160 207q-118 0 -158 -171q-20 -88 -20 -264q0 -179 20 -263q39 -167 160 -167q155 0 165 248h130q-1 -155 -68 -257q-79 -118 -227 -118q-323 0 -323 557t323 557q136 0 214 -99q69 -89 75 -230h-131zM133 -424v88q164 -37 246 -37q121 0 121 84
q0 100 -136 100q-22 0 -53 -3v192h72v-106q248 0 248 -177q0 -182 -246 -182q-94 0 -252 41z" />
    <glyph glyph-name="egrave" unicode="&#xe8;" horiz-adv-x="780" 
d="M564 348h134q-8 -158 -73 -256q-79 -119 -226 -119q-323 0 -323 557t323 557q308 0 308 -491q0 -60 -3 -84h-484q1 -170 22 -253q39 -159 157 -159q155 0 165 248zM221 631h340v41q0 293 -164 293t-176 -334zM543 1198h-106l-281 350h178z" />
    <glyph glyph-name="eacute" unicode="&#xe9;" horiz-adv-x="780" 
d="M564 348h134q-8 -158 -73 -256q-79 -119 -226 -119q-323 0 -323 557t323 557q308 0 308 -491q0 -60 -3 -84h-484q1 -170 22 -253q39 -159 157 -159q155 0 165 248zM221 631h340v41q0 293 -164 293t-176 -334zM269 1198l209 350h178l-281 -350h-106z" />
    <glyph glyph-name="ecircumflex" unicode="&#xea;" horiz-adv-x="780" 
d="M564 348h134q-8 -158 -73 -256q-79 -119 -226 -119q-323 0 -323 557t323 557q308 0 308 -491q0 -60 -3 -84h-484q1 -170 22 -253q39 -159 157 -159q155 0 165 248zM221 631h340v41q0 293 -164 293t-176 -334zM119 1198l197 350h178l197 -350h-107l-178 244l-180 -244
h-107z" />
    <glyph glyph-name="edieresis" unicode="&#xeb;" horiz-adv-x="780" 
d="M564 348h134q-8 -158 -73 -256q-79 -119 -226 -119q-323 0 -323 557t323 557q308 0 308 -491q0 -60 -3 -84h-484q1 -170 22 -253q39 -159 157 -159q155 0 165 248zM221 631h340v41q0 293 -164 293t-176 -334zM486 1264v186h160v-186h-160zM166 1264v186h160v-186h-160z
" />
    <glyph glyph-name="igrave" unicode="&#xec;" horiz-adv-x="389" 
d="M123 0v1063h143v-1063h-143zM332 1198h-106l-281 350h178z" />
    <glyph glyph-name="iacute" unicode="&#xed;" horiz-adv-x="389" 
d="M123 0v1063h143v-1063h-143zM58 1198l209 350h178l-281 -350h-106z" />
    <glyph glyph-name="icircumflex" unicode="&#xee;" horiz-adv-x="389" 
d="M123 0v1063h143v-1063h-143zM-92 1198l197 350h178l197 -350h-107l-178 244l-180 -244h-107z" />
    <glyph glyph-name="idieresis" unicode="&#xef;" horiz-adv-x="389" 
d="M123 0v1063h143v-1063h-143zM275 1264v186h160v-186h-160zM-45 1264v186h160v-186h-160z" />
    <glyph glyph-name="eth" unicode="&#xf0;" horiz-adv-x="782" 
d="M461 1014q-31 93 -64 137l-227 -90l-37 92l209 82q-48 74 -184 154l35 92q131 -44 266 -203l225 86l39 -88l-211 -80q168 -310 168 -696q0 -527 -283 -527q-293 0 -293 527q0 526 279 526q26 0 78 -12zM238 500q0 -169 16 -246q34 -162 141 -162q154 0 154 408
q0 407 -154 407q-107 0 -141 -162q-16 -76 -16 -245z" />
    <glyph glyph-name="ntilde" unicode="&#xf1;" horiz-adv-x="846" 
d="M127 0v1063h141v-111q123 138 252 138q205 0 205 -275v-815h-141v768q0 93 -16 132q-26 65 -103 65q-113 0 -197 -140v-825h-141zM715 1466q-50 -192 -199 -192q-35 0 -99 23.5t-99 23.5q-68 0 -97 -64h-88q45 187 199 187q35 0 99 -23.5t99 -23.5q73 0 97 69h88z" />
    <glyph glyph-name="ograve" unicode="&#xf2;" horiz-adv-x="782" 
d="M217 530q0 -177 19 -261q39 -169 157 -169q170 0 170 430q0 433 -170 433q-118 0 -157 -170q-19 -85 -19 -263zM72 530q0 557 323 557q316 0 316 -557t-316 -557q-323 0 -323 557zM528 1198h-106l-281 350h178z" />
    <glyph glyph-name="oacute" unicode="&#xf3;" horiz-adv-x="782" 
d="M217 530q0 -177 19 -261q39 -169 157 -169q170 0 170 430q0 433 -170 433q-118 0 -157 -170q-19 -85 -19 -263zM72 530q0 557 323 557q316 0 316 -557t-316 -557q-323 0 -323 557zM254 1198l209 350h178l-281 -350h-106z" />
    <glyph glyph-name="ocircumflex" unicode="&#xf4;" horiz-adv-x="782" 
d="M217 530q0 -177 19 -261q39 -169 157 -169q170 0 170 430q0 433 -170 433q-118 0 -157 -170q-19 -85 -19 -263zM72 530q0 557 323 557q316 0 316 -557t-316 -557q-323 0 -323 557zM104 1198l197 350h178l197 -350h-107l-178 244l-180 -244h-107z" />
    <glyph glyph-name="otilde" unicode="&#xf5;" horiz-adv-x="782" 
d="M217 530q0 -177 19 -261q39 -169 157 -169q170 0 170 430q0 433 -170 433q-118 0 -157 -170q-19 -85 -19 -263zM72 530q0 557 323 557q316 0 316 -557t-316 -557q-323 0 -323 557zM682 1466q-50 -192 -199 -192q-35 0 -99 23.5t-99 23.5q-68 0 -97 -64h-88
q45 187 199 187q35 0 99 -23.5t99 -23.5q73 0 97 69h88z" />
    <glyph glyph-name="odieresis" unicode="&#xf6;" horiz-adv-x="782" 
d="M217 530q0 -177 19 -261q39 -169 157 -169q170 0 170 430q0 433 -170 433q-118 0 -157 -170q-19 -85 -19 -263zM72 530q0 557 323 557q316 0 316 -557t-316 -557q-323 0 -323 557zM471 1264v186h160v-186h-160zM151 1264v186h160v-186h-160z" />
    <glyph glyph-name="divide" unicode="&#xf7;" horiz-adv-x="1706" 
d="M854 365q45 0 76 -31t31 -76t-31 -75.5t-76 -30.5t-75.5 30.5t-30.5 75.5q0 44 31 75.5t75 31.5zM1452 659v-98h-1198v98h1198zM854 1071q44 0 75.5 -32t31.5 -76q0 -45 -31 -76t-76 -31q-46 0 -76 30.5t-30 76.5q0 44 31 76t75 32z" />
    <glyph glyph-name="oslash" unicode="&#xf8;" horiz-adv-x="782" 
d="M236 264l249 660q-31 39 -90 39q-122 0 -162 -169q-20 -85 -20 -264q0 -157 23 -266zM295 141q27 -41 100 -41q174 0 174 430q0 169 -24 275zM59 -199l109 283q-96 115 -96 446q0 557 323 557q82 0 137 -38l74 190l90 -43l-86 -217q101 -117 101 -449q0 -557 -328 -557
q-87 0 -137 37l-94 -250z" />
    <glyph glyph-name="ugrave" unicode="&#xf9;" horiz-adv-x="846" 
d="M721 1063v-1063h-141v111q-123 -138 -252 -138q-205 0 -205 273v817h141v-768q0 -93 16 -132q26 -65 103 -65q111 0 197 140v825h141zM561 1198h-106l-281 350h178z" />
    <glyph glyph-name="uacute" unicode="&#xfa;" horiz-adv-x="846" 
d="M721 1063v-1063h-141v111q-123 -138 -252 -138q-205 0 -205 273v817h141v-768q0 -93 16 -132q26 -65 103 -65q111 0 197 140v825h141zM287 1198l209 350h178l-281 -350h-106z" />
    <glyph glyph-name="ucircumflex" unicode="&#xfb;" horiz-adv-x="846" 
d="M721 1063v-1063h-141v111q-123 -138 -252 -138q-205 0 -205 273v817h141v-768q0 -93 16 -132q26 -65 103 -65q111 0 197 140v825h141zM137 1198l197 350h178l197 -350h-107l-178 244l-180 -244h-107z" />
    <glyph glyph-name="udieresis" unicode="&#xfc;" horiz-adv-x="846" 
d="M721 1063v-1063h-141v111q-123 -138 -252 -138q-205 0 -205 273v817h141v-768q0 -93 16 -132q26 -65 103 -65q111 0 197 140v825h141zM504 1264v186h160v-186h-160zM184 1264v186h160v-186h-160z" />
    <glyph glyph-name="yacute" unicode="&#xfd;" horiz-adv-x="711" 
d="M18 1063h148l184 -801l180 801h142l-248 -1059q-41 -175 -108 -257q-87 -105 -246 -105q-31 0 -45 2v131q12 -2 36 -2q182 0 228 239zM219 1198l209 350h178l-281 -350h-106z" />
    <glyph glyph-name="thorn" unicode="&#xfe;" 
d="M270 98v-454h-143v1837h143v-514q100 120 209 120q170 0 241 -207q48 -137 48 -348q0 -557 -291 -557q-108 0 -207 123zM270 240q88 -136 181 -136q170 0 170 441q0 424 -170 424q-94 0 -181 -135v-594z" />
    <glyph glyph-name="ydieresis" unicode="&#xff;" horiz-adv-x="711" 
d="M18 1063h148l184 -801l180 801h142l-248 -1059q-41 -175 -108 -257q-87 -105 -246 -105q-31 0 -45 2v131q12 -2 36 -2q182 0 228 239zM436 1264v186h160v-186h-160zM116 1264v186h160v-186h-160z" />
    <glyph glyph-name="Cacute" unicode="&#x106;" horiz-adv-x="950" 
d="M889 485v-32q0 -211 -86 -336q-99 -146 -301 -146q-418 0 -418 750q0 790 424 790q187 0 284 -144q82 -124 82 -320h-147q-16 331 -221 331q-137 0 -202 -150q-62 -145 -62 -493q0 -259 36 -390q64 -239 252 -239q222 0 222 379h137zM371 1620l209 350h178l-281 -350
h-106z" />
    <glyph glyph-name="cacute" unicode="&#x107;" horiz-adv-x="764" 
d="M557 758q-10 207 -160 207q-118 0 -158 -171q-20 -88 -20 -264q0 -179 20 -263q39 -167 160 -167q155 0 165 248h130q-1 -155 -68 -257q-79 -118 -227 -118q-323 0 -323 557t323 557q136 0 214 -99q69 -89 75 -230h-131zM266 1198l209 350h178l-281 -350h-106z" />
    <glyph glyph-name="Ccaron" unicode="&#x10c;" horiz-adv-x="950" 
d="M889 485v-32q0 -211 -86 -336q-99 -146 -301 -146q-418 0 -418 750q0 790 424 790q187 0 284 -144q82 -124 82 -320h-147q-16 331 -221 331q-137 0 -202 -150q-62 -145 -62 -493q0 -259 36 -390q64 -239 252 -239q222 0 222 379h137zM221 1970h107l180 -243l178 243h107
l-197 -350h-178z" />
    <glyph glyph-name="ccaron" unicode="&#x10d;" horiz-adv-x="764" 
d="M557 758q-10 207 -160 207q-118 0 -158 -171q-20 -88 -20 -264q0 -179 20 -263q39 -167 160 -167q155 0 165 248h130q-1 -155 -68 -257q-79 -118 -227 -118q-323 0 -323 557t323 557q136 0 214 -99q69 -89 75 -230h-131zM116 1548h107l180 -243l178 243h107l-197 -350
h-178z" />
    <glyph glyph-name="Dslash" unicode="&#x110;" horiz-adv-x="1004" 
d="M303 1349v-515h207v-111h-207v-583q58 -5 82 -5q210 0 295.5 133t85.5 480q0 341 -85 473.5t-294 132.5q-26 0 -84 -5zM152 0v723h-112v111h112v647h274q295 0 409 -238q80 -168 80 -500q0 -335 -79 -503q-114 -240 -410 -240h-274z" />
    <glyph glyph-name="dcroat" unicode="&#x111;" horiz-adv-x="848" 
d="M715 0h-142v98q-98 -123 -208 -123q-289 0 -289 557q0 210 47 347q71 208 239 208q109 0 211 -120v274h-194v86h194v154h142v-154h125v-86h-125v-1241zM573 240v594q-86 135 -180 135q-170 0 -170 -424q0 -441 170 -441q97 0 180 136z" />
    <glyph glyph-name="Gbreve" unicode="&#x11e;" horiz-adv-x="981" 
d="M780 0l-16 86q-97 -115 -258 -115q-422 0 -422 750q0 790 424 790q187 0 284 -144q82 -124 82 -320h-147q-16 331 -221 331q-138 0 -201 -149q-61 -144 -61 -504q0 -250 36 -382q64 -237 244 -237q112 0 170 88q49 75 49 193v174h-215v133h359v-694h-107zM210 1931h89
q13 -145 193 -145t193 145h90q-21 -272 -283 -272q-264 0 -282 272z" />
    <glyph glyph-name="gbreve" unicode="&#x11f;" horiz-adv-x="760" 
d="M193 393q-93 95 -93 309q0 379 273 379q137 0 207 -96q74 96 180 96v-132q-28 5 -41 5q-52 0 -103 -47q31 -107 31 -229q0 -354 -270 -354q-16 0 -47 5t-44 5q-26 0 -52 -18q-29 -19 -29 -44q0 -48 51 -67q25 -10 121 -26q247 -44 322 -124q51 -56 51 -147
q0 -133 -126 -202q-101 -56 -245 -56q-143 0 -235 50q-117 63 -117 194q0 114 151 208q-106 56 -106 136q0 84 121 155zM311 61q-145 -56 -145 -157q0 -137 219 -137q233 0 233 133q0 126 -307 161zM377 965q-95 0 -129 -91q-21 -56 -21 -172q0 -114 21 -170q34 -90 129 -90
q143 0 143 260q0 263 -143 263zM99 1509h89q13 -145 193 -145t193 145h90q-21 -272 -283 -272q-264 0 -282 272z" />
    <glyph glyph-name="Idotaccent" unicode="&#x130;" horiz-adv-x="428" 
d="M137 0v1481h152v-1481h-152zM127 1675v207h176v-207h-176z" />
    <glyph glyph-name="dotlessi" unicode="&#x131;" horiz-adv-x="389" 
d="M123 0v1063h143v-1063h-143z" />
    <glyph glyph-name="Lslash" unicode="&#x141;" horiz-adv-x="793" 
d="M152 0v647l-142 -96v127l142 100v703h151v-621l234 162v-129l-234 -164v-588h465v-141h-616z" />
    <glyph glyph-name="lslash" unicode="&#x142;" horiz-adv-x="408" 
d="M133 0v668l-123 -84v100l123 88v709h141v-633l123 86v-103l-123 -86v-745h-141z" />
    <glyph glyph-name="OE" unicode="&#x152;" horiz-adv-x="1466" 
d="M756 0v141q-86 -170 -264 -170q-408 0 -408 770t414 770q176 0 258 -174v144h657v-135h-520v-512h383v-136h-383v-561h537v-137h-674zM492 1372q-248 0 -248 -596q0 -360 59 -509q61 -156 189 -156q247 0 247 630q0 631 -247 631z" />
    <glyph glyph-name="oe" unicode="&#x153;" horiz-adv-x="1280" 
d="M1063 348h133q-19 -375 -309 -375q-173 0 -240 150q-87 -150 -248 -150q-323 0 -323 557t323 557q156 0 246 -151q88 151 252 151q307 0 307 -491q0 -54 -2 -84h-485q0 -9 -1 -28t-1 -29q0 -355 182 -355q156 0 166 248zM719 633h342v41q0 291 -166 291q-176 0 -176 -332
zM399 963q-121 0 -160 -169q-20 -84 -20 -264q0 -179 20 -263q39 -167 160 -167q174 0 174 430q0 433 -174 433z" />
    <glyph glyph-name="Scedilla" unicode="&#x15e;" horiz-adv-x="891" 
d="M74 393h143q16 -284 236 -284q103 0 162 73q55 67 55 172q0 124 -105 235q-45 48 -220 182q-143 109 -193 191q-56 92 -56 214q0 142 93 237.5t235 95.5q175 0 270 -116q86 -105 92 -285h-140q-20 274 -216 274q-92 0 -145.5 -56.5t-53.5 -149.5q0 -124 151 -248
l280 -224q151 -151 151 -344q0 -171 -95 -278q-100 -111 -269 -111q-186 0 -284 121q-88 110 -91 301zM196 -424v88q164 -37 246 -37q121 0 121 84q0 100 -136 100q-22 0 -53 -3v192h72v-106q248 0 248 -177q0 -182 -246 -182q-94 0 -252 41z" />
    <glyph glyph-name="scedilla" unicode="&#x15f;" horiz-adv-x="770" 
d="M74 258l135 31q12 -83 56 -136q51 -61 130 -61q71 0 113.5 46t42.5 118q0 110 -192 240q-124 84 -171 133q-84 89 -84 192q0 115 75 190.5t190 75.5q234 0 299 -253l-121 -37q-44 174 -172 174q-59 0 -97 -36t-38 -95q0 -91 187 -218q142 -96 184 -142q79 -88 79 -214
q0 -137 -84.5 -214t-222.5 -77q-126 0 -209 80q-80 76 -100 203zM135 -424v88q164 -37 246 -37q121 0 121 84q0 100 -136 100q-22 0 -53 -3v192h72v-106q248 0 248 -177q0 -182 -246 -182q-94 0 -252 41z" />
    <glyph glyph-name="Scaron" unicode="&#x160;" horiz-adv-x="891" 
d="M74 393h143q16 -284 236 -284q103 0 162 73q55 67 55 172q0 124 -105 235q-45 48 -220 182q-143 109 -193 191q-56 92 -56 214q0 142 93 237.5t235 95.5q175 0 270 -116q86 -105 92 -285h-140q-20 274 -216 274q-92 0 -145.5 -56.5t-53.5 -149.5q0 -124 151 -248
l280 -224q151 -151 151 -344q0 -171 -95 -278q-100 -111 -269 -111q-186 0 -284 121q-88 110 -91 301zM159 1970h107l180 -243l178 243h107l-197 -350h-178z" />
    <glyph glyph-name="scaron" unicode="&#x161;" horiz-adv-x="770" 
d="M74 258l135 31q12 -83 56 -136q51 -61 130 -61q71 0 113.5 46t42.5 118q0 110 -192 240q-124 84 -171 133q-84 89 -84 192q0 115 75 190.5t190 75.5q234 0 299 -253l-121 -37q-44 174 -172 174q-59 0 -97 -36t-38 -95q0 -91 187 -218q142 -96 184 -142q79 -88 79 -214
q0 -137 -84.5 -214t-222.5 -77q-126 0 -209 80q-80 76 -100 203zM98 1548h107l180 -243l178 243h107l-197 -350h-178z" />
    <glyph glyph-name="Ydieresis" unicode="&#x178;" horiz-adv-x="772" 
d="M309 0v637l-332 844h158l254 -674l248 674h156l-328 -844v-637h-156zM467 1686v186h160v-186h-160zM147 1686v186h160v-186h-160z" />
    <glyph glyph-name="Zcaron" unicode="&#x17d;" horiz-adv-x="756" 
d="M733 0h-704v115l536 1247h-481v119h649v-103l-540 -1243h540v-135zM92 1970h107l180 -243l178 243h107l-197 -350h-178z" />
    <glyph glyph-name="zcaron" unicode="&#x17e;" horiz-adv-x="680" 
d="M49 0v109l424 833h-385v121h541v-100l-428 -844h428v-119h-580zM53 1548h107l180 -243l178 243h107l-197 -350h-178z" />
    <glyph glyph-name="florin" unicode="&#x192;" horiz-adv-x="870" 
d="M39 -338v121q42 -12 78 -12q61 0 94 41q62 77 107 475q28 248 40 501h-174v121h187q9 242 54 369q76 215 261 215q45 0 111 -8v-121q-52 16 -101 16q-91 0 -133 -91q-41 -86 -57 -380h178v-121h-190q-17 -293 -34 -461q-32 -304 -83 -451q-79 -226 -246 -226
q-44 0 -92 12z" />
    <glyph glyph-name="circumflex" unicode="&#x2c6;" horiz-adv-x="1024" 
d="M225 1198l197 350h178l197 -350h-107l-178 244l-180 -244h-107z" />
    <glyph glyph-name="caron" unicode="&#x2c7;" horiz-adv-x="1024" 
d="M225 1548h107l180 -243l178 243h107l-197 -350h-178z" />
    <glyph glyph-name="macron" unicode="&#xaf;" horiz-adv-x="1024" 
d="M254 1294v125h516v-125h-516z" />
    <glyph glyph-name="macron" unicode="&#x2c9;" horiz-adv-x="1024" 
d="M254 1294v125h516v-125h-516z" />
    <glyph glyph-name="breve" unicode="&#x2d8;" horiz-adv-x="1024" 
d="M229 1509h89q13 -145 193 -145t193 145h90q-21 -272 -283 -272q-264 0 -282 272z" />
    <glyph glyph-name="dotaccent" unicode="&#x2d9;" horiz-adv-x="1024" 
d="M424 1253v207h176v-207h-176z" />
    <glyph glyph-name="ring" unicode="&#x2da;" horiz-adv-x="1024" 
d="M371 1427q0 -60 40.5 -101.5t100.5 -41.5t101.5 41.5t41.5 101.5t-41.5 102t-101.5 42q-61 0 -101 -41.5t-40 -102.5zM264 1427q0 105 71.5 176.5t176.5 71.5t176.5 -71.5t71.5 -176.5t-71.5 -176t-176.5 -71t-176.5 71t-71.5 176z" />
    <glyph glyph-name="ogonek" unicode="&#x2db;" horiz-adv-x="1024" 
d="M582 0q-138 -124 -138 -223q0 -84 107 -84q13 0 37 1t35 1v-129h-80q-221 0 -221 164q0 121 186 270h74z" />
    <glyph glyph-name="tilde" unicode="&#x2dc;" horiz-adv-x="1024" 
d="M803 1466q-50 -192 -199 -192q-35 0 -99 23.5t-99 23.5q-68 0 -97 -64h-88q45 187 199 187q35 0 99 -23.5t99 -23.5q73 0 97 69h88z" />
    <glyph glyph-name="hungarumlaut" unicode="&#x2dd;" horiz-adv-x="1024" 
d="M580 1198l168 350h155l-239 -350h-84zM322 1198l147 350h158l-221 -350h-84z" />
    <glyph glyph-name="Delta" unicode="&#x394;" horiz-adv-x="1346" 
d="M1139 139l-467 1186l-465 -1186h932zM766 1473l590 -1473h-1366l590 1473h186z" />
    <glyph glyph-name="Delta" unicode="&#x2206;" horiz-adv-x="1346" 
d="M1139 139l-467 1186l-465 -1186h932zM766 1473l590 -1473h-1366l590 1473h186z" />
    <glyph glyph-name="Omega" unicode="&#x3a9;" horiz-adv-x="1579" 
d="M1462 139v-139h-581v127q419 251 419 668q0 246 -129 407q-140 174 -380 174q-241 0 -382 -173q-130 -160 -130 -406q0 -422 419 -670v-127h-581v139h344q-340 261 -340 645q0 310 178 514q187 215 492 215q304 0 491 -214q178 -204 178 -513q0 -383 -342 -647h344z" />
    <glyph glyph-name="Omega" unicode="&#x2126;" horiz-adv-x="1579" 
d="M1462 139v-139h-581v127q419 251 419 668q0 246 -129 407q-140 174 -380 174q-241 0 -382 -173q-130 -160 -130 -406q0 -422 419 -670v-127h-581v139h344q-340 261 -340 645q0 310 178 514q187 215 492 215q304 0 491 -214q178 -204 178 -513q0 -383 -342 -647h344z" />
    <glyph glyph-name="mu" unicode="&#xb5;" horiz-adv-x="1110" 
d="M344 1065l-125 -592q-16 -76 -16 -139q0 -244 225 -244q257 0 348 418l121 557h139l-164 -770q-22 -103 -22 -133q0 -74 104 -64l-20 -110q-42 -11 -86 -11q-137 0 -137 160q-88 -162 -299 -162q-189 0 -269 156l-114 -557h-140l316 1491h139z" />
    <glyph glyph-name="mu" unicode="&#x3bc;" horiz-adv-x="1110" 
d="M344 1065l-125 -592q-16 -76 -16 -139q0 -244 225 -244q257 0 348 418l121 557h139l-164 -770q-22 -103 -22 -133q0 -74 104 -64l-20 -110q-42 -11 -86 -11q-137 0 -137 160q-88 -162 -299 -162q-189 0 -269 156l-114 -557h-140l316 1491h139z" />
    <glyph glyph-name="pi" unicode="&#x3c0;" horiz-adv-x="1171" 
d="M1120 944h-182l-115 -541q-30 -141 -30 -188q0 -106 110 -106q49 0 92 9l-26 -118q-56 -16 -101 -16q-213 0 -213 202q0 86 56 351l86 407h-365l-199 -944h-139l199 944h-39q-106 0 -127 -131h-131q25 145 90 198.5t213 53.5h848z" />
    <glyph glyph-name="endash" unicode="&#x2013;" horiz-adv-x="1024" 
d="M0 483v95h1024v-95h-1024z" />
    <glyph glyph-name="emdash" unicode="&#x2014;" horiz-adv-x="2048" 
d="M0 578h2048v-95h-2048v95z" />
    <glyph glyph-name="quoteleft" unicode="&#x2018;" horiz-adv-x="436" 
d="M303 1212v-182h-162v195l121 284h60l-93 -297h74z" />
    <glyph glyph-name="quoteright" unicode="&#x2019;" horiz-adv-x="436" 
d="M147 1327v182h162v-192l-121 -287h-59l92 297h-74z" />
    <glyph glyph-name="quotesinglbase" unicode="&#x201a;" horiz-adv-x="436" 
d="M145 0v186h162v-194l-121 -285h-59l90 293h-72z" />
    <glyph glyph-name="quotedblleft" unicode="&#x201c;" horiz-adv-x="748" 
d="M612 1212v-182h-161v195l122 284h60l-92 -297h71zM303 1212v-182h-162v195l121 284h60l-93 -297h74z" />
    <glyph glyph-name="quotedblright" unicode="&#x201d;" horiz-adv-x="748" 
d="M459 1327v182h162v-192l-121 -287h-60l90 297h-71zM147 1327v182h162v-192l-121 -287h-59l92 297h-74z" />
    <glyph glyph-name="quotedblbase" unicode="&#x201e;" horiz-adv-x="748" 
d="M449 0v184h161v-194l-121 -285h-59l92 295h-73zM139 0v184h162v-194l-121 -285h-59l90 295h-72z" />
    <glyph glyph-name="dagger" unicode="&#x2020;" horiz-adv-x="1024" 
d="M471 -225q-3 465 -35 740q-16 140 -16 118q0 -2 11 62q30 166 42 296l-328 -53v180l328 -53l-53 416h180l-53 -416l327 53v-180l-327 53q22 -193 53 -358q-23 -120 -35 -334q-13 -210 -16 -524h-78z" />
    <glyph glyph-name="daggerdbl" unicode="&#x2021;" horiz-adv-x="1024" 
d="M422 639q22 117 51 352l-326 -53v180l328 -53l-53 416h180l-53 -416l328 53v-180l-328 53q12 -124 42 -294q11 -59 11 -58q0 -4 -8 -48q-33 -183 -45 -302l328 53v-180l-328 53l53 -418h-180l53 418l-328 -53v180l330 -53q-19 176 -55 350z" />
    <glyph glyph-name="bullet" unicode="&#x2022;" horiz-adv-x="1208" 
d="M307 762q0 124 86.5 209.5t210.5 85.5q123 0 209 -86t86 -209t-87 -210t-210 -87q-124 0 -209.5 86.5t-85.5 210.5z" />
    <glyph glyph-name="ellipsis" unicode="&#x2026;" horiz-adv-x="2048" 
d="M260 0v182h162v-182h-162zM942 0v182h162v-182h-162zM1626 0v182h162v-182h-162z" />
    <glyph glyph-name="perthousand" unicode="&#x2030;" horiz-adv-x="2261" 
d="M233 -29l908 1522h112l-907 -1522h-113zM399 1380q-83 0 -141.5 -57.5t-58.5 -140.5q0 -84 58 -141.5t142 -57.5t141.5 57.5t57.5 141.5t-57.5 141t-141.5 57zM399 1493q130 0 221 -90.5t91 -220.5t-91 -221t-221 -91t-220.5 91t-90.5 221t90.5 220.5t220.5 90.5z
M1868 485q-84 0 -142.5 -57.5t-58.5 -140.5q0 -84 58.5 -141.5t142.5 -57.5t141 57.5t57 141.5t-57 141t-141 57zM1868 598q130 0 220.5 -90.5t90.5 -220.5t-90.5 -221t-220.5 -91t-221 91t-91 221t91 220.5t221 90.5zM1110 485q-84 0 -141.5 -57t-57.5 -141t57.5 -141.5
t141.5 -57.5t141.5 57.5t57.5 141.5t-57.5 141t-141.5 57zM1112 598q130 0 219.5 -90.5t89.5 -220.5t-89.5 -221t-219.5 -91t-220.5 91t-90.5 221t90.5 220.5t220.5 90.5z" />
    <glyph glyph-name="guilsinglleft" unicode="&#x2039;" horiz-adv-x="541" 
d="M442 842l-237 -312l237 -311h-125l-241 311l243 312h123z" />
    <glyph glyph-name="guilsinglright" unicode="&#x203a;" horiz-adv-x="541" 
d="M78 842h123l241 -312l-241 -311h-125l237 311z" />
    <glyph glyph-name="fraction" unicode="&#x2044;" horiz-adv-x="342" 
d="M-340 -29l903 1514h109l-903 -1514h-109z" />
    <glyph glyph-name="franc" unicode="&#x20a3;" horiz-adv-x="1337" 
d="M133 0v1481h621v-138h-469v-509h360v-136h-360v-698h-152zM922 0v1063h143v-123q103 145 242 145q5 0 15.5 -1t15.5 -1v-137q-5 0 -15.5 1t-15.5 1q-155 0 -242 -166v-782h-143z" />
    <glyph glyph-name="trademark" unicode="&#x2122;" horiz-adv-x="1706" 
d="M938 1454l166 -422l156 422h116v-530h-71v467l-177 -467h-49l-186 467v-467h-72v530h117zM694 1454v-57h-172v-473h-82v473h-176v57h430z" />
    <glyph glyph-name="partialdiff" unicode="&#x2202;" horiz-adv-x="1034" 
d="M752 592q24 166 24 309q0 326 -155 326q-45 0 -108 -68.5t-103 -68.5q-29 0 -51.5 19t-22.5 48q0 72 77 116q64 36 142 36q193 0 289 -193q74 -150 74 -364q0 -334 -136 -556.5t-333 -222.5q-154 0 -243 119q-81 107 -81 266q0 168 100 294q107 136 271 136
q191 0 256 -196zM711 463q0 258 -179 258q-137 0 -207 -165q-53 -124 -53 -282q0 -251 179 -251q134 0 205 162q55 124 55 278z" />
    <glyph glyph-name="product" unicode="&#x220f;" horiz-adv-x="1509" 
d="M160 1473h1188v-1866h-168v1718h-852v-1718h-168v1866z" />
    <glyph glyph-name="summation" unicode="&#x2211;" horiz-adv-x="1317" 
d="M49 1473h1223v-144h-1014l705 -766l-740 -813h1057v-143h-1266v133l744 821l-709 772v140z" />
    <glyph glyph-name="minus" unicode="&#x2212;" horiz-adv-x="1706" 
d="M1452 659v-98h-1198v98h1198z" />
    <glyph glyph-name="periodcentered" horiz-adv-x="436" 
d="M217 840q43 0 75 -31t32 -74t-32 -74.5t-75 -31.5q-45 0 -74.5 30.5t-29.5 75.5q0 43 30.5 74t73.5 31z" />
    <glyph glyph-name="radical" unicode="&#x221a;" horiz-adv-x="1276" 
d="M1276 1636v-71h-125l-594 -1606h-41l-328 899l-114 -39l-19 58l246 86l272 -746l525 1419h178z" />
    <glyph glyph-name="infinity" unicode="&#x221e;" horiz-adv-x="1706" 
d="M897 559q103 -199 281 -199q111 0 178 79q63 75 63 188q0 105 -56 180q-61 82 -163 82q-104 0 -191 -119q-49 -67 -112 -211zM811 668q-103 196 -281 196q-110 0 -177 -78q-64 -74 -64 -186q0 -104 56 -179q62 -83 163 -83q105 0 192 118q50 68 111 212zM838 721
q134 268 331 268q138 0 226 -121q80 -109 80 -252q0 -152 -69 -256q-80 -122 -224 -122q-179 0 -314 264q-135 -264 -321 -264q-144 0 -233 118q-81 108 -81 256q0 152 69 256q80 121 224 121q186 0 312 -268z" />
    <glyph glyph-name="integral" unicode="&#x222b;" horiz-adv-x="985" 
d="M293 -272q103 0 117 713l4 196q12 491 98 699q88 212 268 212q65 0 109 -33q49 -37 49 -100q0 -104 -107 -104q-76 0 -103 69.5t-34 69.5q-103 0 -116 -623q-2 -96 -7 -289q-16 -501 -101 -703q-87 -206 -267 -206q-63 0 -108 31q-50 36 -50 96q0 111 113 111
q90 0 109 -101q7 -38 26 -38z" />
    <glyph glyph-name="approxequal" unicode="&#x2248;" horiz-adv-x="1706" 
d="M1530 469q-208 -145 -387 -145q-99 0 -290 69.5t-288 69.5q-153 0 -387 -160v111q210 145 387 145q101 0 295 -68.5t283 -68.5q164 0 387 158v-111zM1530 807q-204 -145 -387 -145q-99 0 -290 69.5t-288 69.5q-153 0 -387 -160v113q209 145 387 145q101 0 295 -69.5
t283 -69.5q158 0 387 158v-111z" />
    <glyph glyph-name="approxequal" unicode="&#x22f2;" horiz-adv-x="1706" 
d="M1530 469q-208 -145 -387 -145q-99 0 -290 69.5t-288 69.5q-153 0 -387 -160v111q210 145 387 145q101 0 295 -68.5t283 -68.5q164 0 387 158v-111zM1530 807q-204 -145 -387 -145q-99 0 -290 69.5t-288 69.5q-153 0 -387 -160v113q209 145 387 145q101 0 295 -69.5
t283 -69.5q158 0 387 158v-111z" />
    <glyph glyph-name="notequal" unicode="&#x2260;" horiz-adv-x="1706" 
d="M1288 1110l-205 -264h369v-96h-432l-215 -277h647v-98h-709l-254 -324l-73 60l205 264h-367v98h428l215 277h-643v96h707l253 323z" />
    <glyph glyph-name="lessequal" unicode="&#x2264;" horiz-adv-x="1706" 
d="M1442 139v-98h-1178v98h1178zM1442 1075l-1010 -338l1010 -336v-106l-1178 401v84l1178 402v-107z" />
    <glyph glyph-name="greaterequal" unicode="&#x2265;" horiz-adv-x="1706" 
d="M1442 139v-98h-1178v98h1178zM1442 780v-84l-1178 -401v106l1010 336l-1010 338v107z" />
    <glyph glyph-name="SF370000" unicode="&#x255f;" horiz-adv-x="901" 
d="M295 575h309l-155 775zM27 0l321 1481h209l324 -1481h-160l-86 436h-373l-86 -436h-149z" />
    <glyph glyph-name="SF420000" unicode="&#x2560;" horiz-adv-x="854" 
d="M133 0v1481h666v-138h-514v-509h377v-136h-377v-561h532v-137h-684z" />
    <glyph glyph-name="SF190000" unicode="&#x2561;" horiz-adv-x="428" 
d="M137 0v1481h152v-1481h-152z" />
    <glyph glyph-name="SF200000" unicode="&#x2562;" horiz-adv-x="985" 
d="M492 -29q-408 0 -408 770q0 768 408 768q409 0 409 -768q0 -770 -409 -770zM492 1372q-248 0 -248 -596q0 -360 59 -509q61 -156 189 -156q247 0 247 630q0 631 -247 631z" />
    <glyph glyph-name="SF230000" unicode="&#x2563;" horiz-adv-x="1004" 
d="M129 518v963h152v-949q0 -271 48 -347q49 -79 173 -79q121 0 171 81q48 77 48 345v949h151v-963q0 -215 -21 -297q-40 -158 -180 -217q-76 -33 -169 -33q-95 0 -171 33q-141 60 -181 217q-21 81 -21 297z" />
    <glyph glyph-name="SF470000" unicode="&#x2564;" horiz-adv-x="772" 
d="M309 0v637l-332 844h158l254 -674l248 674h156l-328 -844v-637h-156z" />
    <glyph glyph-name="SF480000" unicode="&#x2565;" 
d="M573 571q-146 -32 -239 -100q-121 -87 -121 -215q0 -62 39.5 -102.5t101.5 -40.5q101 0 219 114v344zM573 96q-106 -106 -243 -106q-122 0 -191 74q-67 71 -67 194q0 322 501 449v24q0 119 -21 163q-33 69 -138 69q-137 0 -172 -201l-138 22q51 301 308 301
q170 0 242 -95q63 -83 63 -259v-485q0 -126 18 -246h-145z" />
    <glyph glyph-name="SF410000" unicode="&#x2566;" horiz-adv-x="780" 
d="M564 348h134q-8 -158 -73 -256q-79 -119 -226 -119q-323 0 -323 557t323 557q308 0 308 -491q0 -60 -3 -84h-484q1 -170 22 -253q39 -159 157 -159q155 0 165 248zM221 631h340v41q0 293 -164 293t-176 -334z" />
    <glyph glyph-name="SF450000" unicode="&#x2567;" horiz-adv-x="389" 
d="M123 1313v168h143v-168h-143zM123 0v1063h143v-1063h-143z" />
    <glyph glyph-name="SF460000" unicode="&#x2568;" horiz-adv-x="389" 
d="M123 0v1063h143v-1063h-143z" />
    <glyph glyph-name="SF400000" unicode="&#x2569;" horiz-adv-x="782" 
d="M217 530q0 -177 19 -261q39 -169 157 -169q170 0 170 430q0 433 -170 433q-118 0 -157 -170q-19 -85 -19 -263zM72 530q0 557 323 557q316 0 316 -557t-316 -557q-323 0 -323 557z" />
    <glyph glyph-name="SF540000" unicode="&#x256a;" horiz-adv-x="846" 
d="M721 1063v-1063h-141v111q-123 -138 -252 -138q-205 0 -205 273v817h141v-768q0 -93 16 -132q26 -65 103 -65q111 0 197 140v825h141z" />
    <glyph glyph-name="SF530000" unicode="&#x256b;" horiz-adv-x="711" 
d="M18 1063h148l184 -801l180 801h142l-248 -1059q-41 -175 -108 -257q-87 -105 -246 -105q-31 0 -45 2v131q12 -2 36 -2q182 0 228 239z" />
    <glyph glyph-name="lozenge" unicode="&#x25ca;" horiz-adv-x="1012" 
d="M506 1409l-385 -817l385 -825l385 825zM506 1653l500 -1061l-500 -1069l-500 1069z" />
    <glyph glyph-name="circle" unicode="&#x25cb;" horiz-adv-x="901" 
d="M164 1550l197 350h178l197 -350h-107l-178 244l-180 -244h-107zM225 1940l209 350h178l-281 -350h-106z" />
    <glyph glyph-name="H18533" unicode="&#x25cf;" horiz-adv-x="901" 
d="M164 1550l197 350h178l197 -350h-107l-178 244l-180 -244h-107zM675 1940h-106l-281 350h178z" />
    <glyph glyph-name="invbullet" unicode="&#x25d8;" horiz-adv-x="901" 
d="M164 1550l197 350h178l197 -350h-107l-178 244l-180 -244h-107zM706 1873h-101v14q0 77 47.5 148.5t47.5 117.5q0 73 -48 73q-50 0 -55 -74l-81 39q4 54 46 93.5t96 39.5q70 0 111.5 -49.5t41.5 -120.5q0 -59 -52.5 -129.5t-52.5 -121.5v-30z" />
    <glyph glyph-name="invcircle" unicode="&#x25d9;" horiz-adv-x="901" 
d="M164 1550l197 350h178l197 -350h-107l-178 244l-180 -244h-107zM807 2178q-50 -192 -199 -192q-35 0 -99 23.5t-99 23.5q-68 0 -97 -64h-88q45 187 199 187q35 0 99 -23.5t99 -23.5q73 0 97 69h88z" />
    <glyph glyph-name="fi" unicode="&#xf001;" horiz-adv-x="874" 
d="M475 1491v-115q-42 10 -63 10q-80 0 -102 -54q-13 -30 -13 -126v-143h170v-125h-170v-938h-141v938h-160v125h160v125q0 154 30 217q45 96 179 96q64 0 110 -10zM608 0v1063h144v-1063h-144zM608 1313v168h144v-168h-144z" />
    <glyph glyph-name="fl" unicode="&#xf002;" horiz-adv-x="874" 
d="M475 1491v-115q-42 10 -63 10q-80 0 -102 -54q-13 -30 -13 -126v-143h170v-125h-170v-938h-141v938h-160v125h160v125q0 154 30 217q45 96 179 96q64 0 110 -10zM608 0v1481h144v-1481h-144z" />
    <glyph glyph-name="u20AB" unicode="&#x20ab;" horiz-adv-x="610" 
d="M496 437h-100v69q-70 -87 -147 -87q-204 0 -204 393q0 391 202 391q77 0 149 -85v194h-137v60h137v109h100v-109h88v-60h-88v-875zM396 606v419q-61 95 -127 95q-120 0 -120 -299q0 -311 120 -311q68 0 127 96zM488 301v-70h-404v70h404z" />
    <glyph glyph-name="glyph275" horiz-adv-x="434" 
 />
    <glyph glyph-name="nonbreakingspace" unicode="&#xa0;" horiz-adv-x="870" 
 />
    <glyph glyph-name="apple" unicode="&#xf000;" horiz-adv-x="1618" 
d="M836 1216q-2 12 -2 37q0 132 101 237q96 99 230 124q2 -20 2 -62q0 -131 -103.5 -234.5t-211.5 -103.5q-3 0 -8.5 1t-7.5 1zM1505 403q-90 -195 -153 -280q-118 -158 -256 -158q-45 0 -128 33t-126 33q-45 0 -129.5 -33t-128.5 -33q-128 0 -259 176q-99 134 -156 296
q-56 155 -56 300q0 211 117 348q124 146 331 146q57 0 150 -34t129 -34q35 0 127 34t147 34q219 0 359 -162q-201 -128 -201 -328q0 -233 233 -338z" />
    <glyph glyph-name="sfthyphen" unicode="&#xad;" horiz-adv-x="674" 
d="M92 467v127h490v-127h-490z" />
    <glyph glyph-name="ch270" unicode="&#xb7;" horiz-adv-x="436" 
d="M217 840q43 0 75 -31t32 -74t-32 -74.5t-75 -31.5q-45 0 -74.5 30.5t-29.5 75.5q0 43 30.5 74t73.5 31z" />
    <glyph glyph-name="ch270" unicode="&#x2219;" horiz-adv-x="436" 
d="M217 840q43 0 75 -31t32 -74t-32 -74.5t-75 -31.5q-45 0 -74.5 30.5t-29.5 75.5q0 43 30.5 74t73.5 31z" />
    <glyph glyph-name="euro" horiz-adv-x="870" 
d="M35 901h80q13 326 94 459q82 137 252 137q177 0 260 -146q58 -103 78 -307h-144q-26 324 -194 324q-101 0 -150 -104q-47 -99 -55 -363h367l-25 -80h-344v-149h338l-25 -80l-311 -1q7 -278 54 -380q48 -109 151 -109q117 0 164 143q23 71 34 240h146q-17 -225 -72 -338
q-84 -172 -272 -172q-173 0 -256 142q-81 138 -92 475h-115l25 80h88v149h-101z" />
    <glyph glyph-name="glyph261" horiz-adv-x="436" 
d="M153 1326v169h150v-178l-151 -269v113l69 165h-68z" />
    <glyph glyph-name="glyph262" horiz-adv-x="723" 
d="M527 1161h-101v14q0 77 47.5 148.5t47.5 117.5q0 73 -48 73q-50 0 -55 -74l-81 39q4 54 46 93.5t96 39.5q70 0 111.5 -49.5t41.5 -120.5q0 -59 -52.5 -129.5t-52.5 -121.5v-30z" />
    <glyph glyph-name="glyph263" 
d="M140 1198l197 350h178l197 -350h-107l-178 244l-180 -244h-107zM201 1588l209 350h178l-281 -350h-106z" />
    <glyph glyph-name="glyph264" 
d="M140 1198l197 350h178l197 -350h-107l-178 244l-180 -244h-107zM651 1588h-106l-281 350h178z" />
    <glyph glyph-name="glyph265" 
d="M140 1198l197 350h178l197 -350h-107l-178 244l-180 -244h-107zM683 1521h-101v14q0 77 47.5 148.5t47.5 117.5q0 73 -48 73q-50 0 -55 -74l-81 39q4 54 46 93.5t96 39.5q70 0 111.5 -49.5t41.5 -120.5q0 -59 -52.5 -129.5t-52.5 -121.5v-30z" />
    <glyph glyph-name="glyph266" 
d="M140 1198l197 350h178l197 -350h-107l-178 244l-180 -244h-107zM783 1826q-50 -192 -199 -192q-35 0 -99 23.5t-99 23.5q-68 0 -97 -64h-88q45 187 199 187q35 0 99 -23.5t99 -23.5q73 0 97 69h88z" />
    <glyph glyph-name="glyph267" 
d="M144 1509h89q13 -145 193 -145t193 145h90q-21 -272 -283 -272q-264 0 -282 272zM271 1588l209 350h178l-281 -350h-106z" />
    <glyph glyph-name="glyph268" 
d="M144 1509h89q13 -145 193 -145t193 145h90q-21 -272 -283 -272q-264 0 -282 272zM581 1588h-106l-281 350h178z" />
    <glyph glyph-name="glyph269" 
d="M144 1509h89q13 -145 193 -145t193 145h90q-21 -272 -283 -272q-264 0 -282 272zM469 1521h-101v14q0 77 47.5 148.5t47.5 117.5q0 73 -48 73q-50 0 -55 -74l-81 39q4 54 46 93.5t96 39.5q70 0 111.5 -49.5t41.5 -120.5q0 -59 -52.5 -129.5t-52.5 -121.5v-30z" />
    <glyph glyph-name="glyph270" 
d="M144 1509h89q13 -145 193 -145t193 145h90q-21 -272 -283 -272q-264 0 -282 272zM783 1826q-50 -192 -199 -192q-35 0 -99 23.5t-99 23.5q-68 0 -97 -64h-88q45 187 199 187q35 0 99 -23.5t99 -23.5q73 0 97 69h88z" />
    <glyph glyph-name="glyph271" unicode="&#x102;" horiz-adv-x="901" 
d="M295 575h309l-155 775zM27 0l321 1481h209l324 -1481h-160l-86 436h-373l-86 -436h-149zM167 1859h89q13 -145 193 -145t193 145h90q-21 -272 -283 -272q-264 0 -282 272z" />
    <glyph glyph-name="glyph272" unicode="&#x103;" 
d="M573 571q-146 -32 -239 -100q-121 -87 -121 -215q0 -62 39.5 -102.5t101.5 -40.5q101 0 219 114v344zM573 96q-106 -106 -243 -106q-122 0 -191 74q-67 71 -67 194q0 322 501 449v24q0 119 -21 163q-33 69 -138 69q-137 0 -172 -201l-138 22q51 301 308 301
q170 0 242 -95q63 -83 63 -259v-485q0 -126 18 -246h-145zM144 1509h89q13 -145 193 -145t193 145h90q-21 -272 -283 -272q-264 0 -282 272z" />
    <glyph glyph-name="glyph273" unicode="&#x128;" horiz-adv-x="428" 
d="M137 0v1481h152v-1481h-152zM510 1888q-50 -192 -199 -192q-35 0 -99 23.5t-99 23.5q-68 0 -97 -64h-88q45 187 199 187q35 0 99 -23.5t99 -23.5q73 0 97 69h88z" />
    <glyph glyph-name="glyph274" unicode="&#x129;" horiz-adv-x="389" 
d="M123 0v1063h143v-1063h-143zM502 1466q-50 -192 -199 -192q-35 0 -99 23.5t-99 23.5q-68 0 -97 -64h-88q45 187 199 187q35 0 99 -23.5t99 -23.5q73 0 97 69h88z" />
    <glyph glyph-name="glyph275" unicode="&#x168;" horiz-adv-x="1004" 
d="M129 518v963h152v-949q0 -271 48 -347q49 -79 173 -79q121 0 171 81q48 77 48 345v949h151v-963q0 -215 -21 -297q-40 -158 -180 -217q-76 -33 -169 -33q-95 0 -171 33q-141 60 -181 217q-21 81 -21 297zM795 1888q-50 -192 -199 -192q-35 0 -99 23.5t-99 23.5
q-68 0 -97 -64h-88q45 187 199 187q35 0 99 -23.5t99 -23.5q73 0 97 69h88z" />
    <glyph glyph-name="glyph276" unicode="&#x169;" horiz-adv-x="846" 
d="M721 1063v-1063h-141v111q-123 -138 -252 -138q-205 0 -205 273v817h141v-768q0 -93 16 -132q26 -65 103 -65q111 0 197 140v825h141zM722 1466q-50 -192 -199 -192q-35 0 -99 23.5t-99 23.5q-68 0 -97 -64h-88q45 187 199 187q35 0 99 -23.5t99 -23.5q73 0 97 69h88z
" />
    <glyph glyph-name="glyph277" unicode="&#x1a0;" horiz-adv-x="985" 
d="M492 -29q-408 0 -408 770q0 768 408 768q409 0 409 -768q0 -770 -409 -770zM492 1372q-248 0 -248 -596q0 -360 59 -509q61 -156 189 -156q247 0 247 630q0 631 -247 631zM770 1442v169h150v-178l-151 -269v113l69 165h-68z" />
    <glyph glyph-name="glyph278" unicode="&#x1a1;" horiz-adv-x="782" 
d="M217 530q0 -177 19 -261q39 -169 157 -169q170 0 170 430q0 433 -170 433q-118 0 -157 -170q-19 -85 -19 -263zM72 530q0 557 323 557q316 0 316 -557t-316 -557q-323 0 -323 557zM603 1089v169h150v-178l-151 -269v113l69 165h-68z" />
    <glyph glyph-name="glyph279" unicode="&#x1af;" horiz-adv-x="1027" 
d="M129 518v963h152v-949q0 -271 48 -347q49 -79 173 -79q121 0 171 81q48 77 48 345v949h151v-963q0 -215 -21 -297q-40 -158 -180 -217q-76 -33 -169 -33q-95 0 -171 33q-141 60 -181 217q-21 81 -21 297zM850 1442v169h150v-178l-151 -269v113l69 165h-68z" />
    <glyph glyph-name="glyph280" unicode="&#x1b0;" horiz-adv-x="878" 
d="M721 1063v-1063h-141v111q-123 -138 -252 -138q-205 0 -205 273v817h141v-768q0 -93 16 -132q26 -65 103 -65q111 0 197 140v825h141zM709 1089v169h150v-178l-151 -269v113l69 165h-68z" />
    <glyph glyph-name="glyph281" unicode="&#x1ea0;" horiz-adv-x="901" 
d="M295 575h309l-155 775zM27 0l321 1481h209l324 -1481h-160l-86 436h-373l-86 -436h-149zM372 -323v182h162v-182h-162z" />
    <glyph glyph-name="glyph282" unicode="&#x1ea1;" 
d="M573 571q-146 -32 -239 -100q-121 -87 -121 -215q0 -62 39.5 -102.5t101.5 -40.5q101 0 219 114v344zM573 96q-106 -106 -243 -106q-122 0 -191 74q-67 71 -67 194q0 322 501 449v24q0 119 -21 163q-33 69 -138 69q-137 0 -172 -201l-138 22q51 301 308 301
q170 0 242 -95q63 -83 63 -259v-485q0 -126 18 -246h-145zM344 -323v182h162v-182h-162z" />
    <glyph glyph-name="glyph283" unicode="&#x1ea2;" horiz-adv-x="901" 
d="M295 575h309l-155 775zM27 0l321 1481h209l324 -1481h-160l-86 436h-373l-86 -436h-149zM502 1549h-101v14q0 77 47.5 148.5t47.5 117.5q0 73 -48 73q-50 0 -55 -74l-81 39q4 54 46 93.5t96 39.5q70 0 111.5 -49.5t41.5 -120.5q0 -59 -52.5 -129.5t-52.5 -121.5v-30z" />
    <glyph glyph-name="glyph284" unicode="&#x1ea3;" 
d="M573 571q-146 -32 -239 -100q-121 -87 -121 -215q0 -62 39.5 -102.5t101.5 -40.5q101 0 219 114v344zM573 96q-106 -106 -243 -106q-122 0 -191 74q-67 71 -67 194q0 322 501 449v24q0 119 -21 163q-33 69 -138 69q-137 0 -172 -201l-138 22q51 301 308 301
q170 0 242 -95q63 -83 63 -259v-485q0 -126 18 -246h-145zM467 1181h-101v14q0 77 47.5 148.5t47.5 117.5q0 73 -48 73q-50 0 -55 -74l-81 39q4 54 46 93.5t96 39.5q70 0 111.5 -49.5t41.5 -120.5q0 -59 -52.5 -129.5t-52.5 -121.5v-30z" />
    <glyph glyph-name="glyph285" unicode="&#x1ea4;" horiz-adv-x="901" 
d="M295 575h309l-155 775zM27 0l321 1481h209l324 -1481h-160l-86 436h-373l-86 -436h-149zM164 1550l197 350h178l197 -350h-107l-178 244l-180 -244h-107zM225 1940l209 350h178l-281 -350h-106z" />
    <glyph glyph-name="glyph286" unicode="&#x1ea5;" 
d="M573 571q-146 -32 -239 -100q-121 -87 -121 -215q0 -62 39.5 -102.5t101.5 -40.5q101 0 219 114v344zM573 96q-106 -106 -243 -106q-122 0 -191 74q-67 71 -67 194q0 322 501 449v24q0 119 -21 163q-33 69 -138 69q-137 0 -172 -201l-138 22q51 301 308 301
q170 0 242 -95q63 -83 63 -259v-485q0 -126 18 -246h-145zM140 1198l197 350h178l197 -350h-107l-178 244l-180 -244h-107zM201 1588l209 350h178l-281 -350h-106z" />
    <glyph glyph-name="glyph287" unicode="&#x1ea6;" horiz-adv-x="901" 
d="M295 575h309l-155 775zM27 0l321 1481h209l324 -1481h-160l-86 436h-373l-86 -436h-149zM164 1550l197 350h178l197 -350h-107l-178 244l-180 -244h-107zM675 1940h-106l-281 350h178z" />
    <glyph glyph-name="glyph288" unicode="&#x1ea7;" 
d="M573 571q-146 -32 -239 -100q-121 -87 -121 -215q0 -62 39.5 -102.5t101.5 -40.5q101 0 219 114v344zM573 96q-106 -106 -243 -106q-122 0 -191 74q-67 71 -67 194q0 322 501 449v24q0 119 -21 163q-33 69 -138 69q-137 0 -172 -201l-138 22q51 301 308 301
q170 0 242 -95q63 -83 63 -259v-485q0 -126 18 -246h-145zM140 1198l197 350h178l197 -350h-107l-178 244l-180 -244h-107zM651 1588h-106l-281 350h178z" />
    <glyph glyph-name="glyph289" unicode="&#x1ea8;" horiz-adv-x="901" 
d="M295 575h309l-155 775zM27 0l321 1481h209l324 -1481h-160l-86 436h-373l-86 -436h-149zM164 1550l197 350h178l197 -350h-107l-178 244l-180 -244h-107zM706 1873h-101v14q0 77 47.5 148.5t47.5 117.5q0 73 -48 73q-50 0 -55 -74l-81 39q4 54 46 93.5t96 39.5
q70 0 111.5 -49.5t41.5 -120.5q0 -59 -52.5 -129.5t-52.5 -121.5v-30z" />
    <glyph glyph-name="glyph290" unicode="&#x1ea9;" 
d="M573 571q-146 -32 -239 -100q-121 -87 -121 -215q0 -62 39.5 -102.5t101.5 -40.5q101 0 219 114v344zM573 96q-106 -106 -243 -106q-122 0 -191 74q-67 71 -67 194q0 322 501 449v24q0 119 -21 163q-33 69 -138 69q-137 0 -172 -201l-138 22q51 301 308 301
q170 0 242 -95q63 -83 63 -259v-485q0 -126 18 -246h-145zM140 1198l197 350h178l197 -350h-107l-178 244l-180 -244h-107zM683 1521h-101v14q0 77 47.5 148.5t47.5 117.5q0 73 -48 73q-50 0 -55 -74l-81 39q4 54 46 93.5t96 39.5q70 0 111.5 -49.5t41.5 -120.5
q0 -59 -52.5 -129.5t-52.5 -121.5v-30z" />
    <glyph glyph-name="glyph291" unicode="&#x1eaa;" horiz-adv-x="901" 
d="M295 575h309l-155 775zM27 0l321 1481h209l324 -1481h-160l-86 436h-373l-86 -436h-149zM164 1550l197 350h178l197 -350h-107l-178 244l-180 -244h-107zM807 2178q-50 -192 -199 -192q-35 0 -99 23.5t-99 23.5q-68 0 -97 -64h-88q45 187 199 187q35 0 99 -23.5t99 -23.5
q73 0 97 69h88z" />
    <glyph glyph-name="glyph292" unicode="&#x1eab;" 
d="M573 571q-146 -32 -239 -100q-121 -87 -121 -215q0 -62 39.5 -102.5t101.5 -40.5q101 0 219 114v344zM573 96q-106 -106 -243 -106q-122 0 -191 74q-67 71 -67 194q0 322 501 449v24q0 119 -21 163q-33 69 -138 69q-137 0 -172 -201l-138 22q51 301 308 301
q170 0 242 -95q63 -83 63 -259v-485q0 -126 18 -246h-145zM140 1198l197 350h178l197 -350h-107l-178 244l-180 -244h-107zM783 1826q-50 -192 -199 -192q-35 0 -99 23.5t-99 23.5q-68 0 -97 -64h-88q45 187 199 187q35 0 99 -23.5t99 -23.5q73 0 97 69h88z" />
    <glyph glyph-name="glyph293" unicode="&#x1eac;" horiz-adv-x="901" 
d="M295 575h309l-155 775zM27 0l321 1481h209l324 -1481h-160l-86 436h-373l-86 -436h-149zM164 1550l197 350h178l197 -350h-107l-178 244l-180 -244h-107zM372 -323v182h162v-182h-162z" />
    <glyph glyph-name="glyph294" unicode="&#x1ead;" 
d="M573 571q-146 -32 -239 -100q-121 -87 -121 -215q0 -62 39.5 -102.5t101.5 -40.5q101 0 219 114v344zM573 96q-106 -106 -243 -106q-122 0 -191 74q-67 71 -67 194q0 322 501 449v24q0 119 -21 163q-33 69 -138 69q-137 0 -172 -201l-138 22q51 301 308 301
q170 0 242 -95q63 -83 63 -259v-485q0 -126 18 -246h-145zM140 1198l197 350h178l197 -350h-107l-178 244l-180 -244h-107zM344 -323v182h162v-182h-162z" />
    <glyph glyph-name="glyph295" unicode="&#x1eae;" horiz-adv-x="901" 
d="M295 575h309l-155 775zM27 0l321 1481h209l324 -1481h-160l-86 436h-373l-86 -436h-149zM167 1859h89q13 -145 193 -145t193 145h90q-21 -272 -283 -272q-264 0 -282 272zM294 1938l209 350h178l-281 -350h-106z" />
    <glyph glyph-name="glyph296" unicode="&#x1eaf;" 
d="M573 571q-146 -32 -239 -100q-121 -87 -121 -215q0 -62 39.5 -102.5t101.5 -40.5q101 0 219 114v344zM573 96q-106 -106 -243 -106q-122 0 -191 74q-67 71 -67 194q0 322 501 449v24q0 119 -21 163q-33 69 -138 69q-137 0 -172 -201l-138 22q51 301 308 301
q170 0 242 -95q63 -83 63 -259v-485q0 -126 18 -246h-145zM144 1509h89q13 -145 193 -145t193 145h90q-21 -272 -283 -272q-264 0 -282 272zM271 1588l209 350h178l-281 -350h-106z" />
    <glyph glyph-name="glyph297" unicode="&#x1eb0;" horiz-adv-x="901" 
d="M295 575h309l-155 775zM27 0l321 1481h209l324 -1481h-160l-86 436h-373l-86 -436h-149zM167 1859h89q13 -145 193 -145t193 145h90q-21 -272 -283 -272q-264 0 -282 272zM604 1938h-106l-281 350h178z" />
    <glyph glyph-name="glyph298" unicode="&#x1eb1;" 
d="M573 571q-146 -32 -239 -100q-121 -87 -121 -215q0 -62 39.5 -102.5t101.5 -40.5q101 0 219 114v344zM573 96q-106 -106 -243 -106q-122 0 -191 74q-67 71 -67 194q0 322 501 449v24q0 119 -21 163q-33 69 -138 69q-137 0 -172 -201l-138 22q51 301 308 301
q170 0 242 -95q63 -83 63 -259v-485q0 -126 18 -246h-145zM144 1509h89q13 -145 193 -145t193 145h90q-21 -272 -283 -272q-264 0 -282 272zM581 1588h-106l-281 350h178z" />
    <glyph glyph-name="glyph299" unicode="&#x1eb2;" horiz-adv-x="901" 
d="M295 575h309l-155 775zM27 0l321 1481h209l324 -1481h-160l-86 436h-373l-86 -436h-149zM167 1859h89q13 -145 193 -145t193 145h90q-21 -272 -283 -272q-264 0 -282 272zM492 1871h-101v14q0 77 47.5 148.5t47.5 117.5q0 73 -48 73q-50 0 -55 -74l-81 39q4 54 46 93.5
t96 39.5q70 0 111.5 -49.5t41.5 -120.5q0 -59 -52.5 -129.5t-52.5 -121.5v-30z" />
    <glyph glyph-name="glyph300" unicode="&#x1eb3;" 
d="M573 571q-146 -32 -239 -100q-121 -87 -121 -215q0 -62 39.5 -102.5t101.5 -40.5q101 0 219 114v344zM573 96q-106 -106 -243 -106q-122 0 -191 74q-67 71 -67 194q0 322 501 449v24q0 119 -21 163q-33 69 -138 69q-137 0 -172 -201l-138 22q51 301 308 301
q170 0 242 -95q63 -83 63 -259v-485q0 -126 18 -246h-145zM144 1509h89q13 -145 193 -145t193 145h90q-21 -272 -283 -272q-264 0 -282 272zM469 1521h-101v14q0 77 47.5 148.5t47.5 117.5q0 73 -48 73q-50 0 -55 -74l-81 39q4 54 46 93.5t96 39.5q70 0 111.5 -49.5
t41.5 -120.5q0 -59 -52.5 -129.5t-52.5 -121.5v-30z" />
    <glyph glyph-name="glyph301" unicode="&#x1eb4;" horiz-adv-x="901" 
d="M295 575h309l-155 775zM27 0l321 1481h209l324 -1481h-160l-86 436h-373l-86 -436h-149zM167 1859h89q13 -145 193 -145t193 145h90q-21 -272 -283 -272q-264 0 -282 272zM806 2176q-50 -192 -199 -192q-35 0 -99 23.5t-99 23.5q-68 0 -97 -64h-88q45 187 199 187
q35 0 99 -23.5t99 -23.5q73 0 97 69h88z" />
    <glyph glyph-name="glyph302" unicode="&#x1eb5;" 
d="M573 571q-146 -32 -239 -100q-121 -87 -121 -215q0 -62 39.5 -102.5t101.5 -40.5q101 0 219 114v344zM573 96q-106 -106 -243 -106q-122 0 -191 74q-67 71 -67 194q0 322 501 449v24q0 119 -21 163q-33 69 -138 69q-137 0 -172 -201l-138 22q51 301 308 301
q170 0 242 -95q63 -83 63 -259v-485q0 -126 18 -246h-145zM144 1509h89q13 -145 193 -145t193 145h90q-21 -272 -283 -272q-264 0 -282 272zM783 1826q-50 -192 -199 -192q-35 0 -99 23.5t-99 23.5q-68 0 -97 -64h-88q45 187 199 187q35 0 99 -23.5t99 -23.5q73 0 97 69h88z
" />
    <glyph glyph-name="glyph303" unicode="&#x1eb6;" horiz-adv-x="901" 
d="M295 575h309l-155 775zM27 0l321 1481h209l324 -1481h-160l-86 436h-373l-86 -436h-149zM167 1859h89q13 -145 193 -145t193 145h90q-21 -272 -283 -272q-264 0 -282 272zM372 -323v182h162v-182h-162z" />
    <glyph glyph-name="glyph304" unicode="&#x1eb7;" 
d="M573 571q-146 -32 -239 -100q-121 -87 -121 -215q0 -62 39.5 -102.5t101.5 -40.5q101 0 219 114v344zM573 96q-106 -106 -243 -106q-122 0 -191 74q-67 71 -67 194q0 322 501 449v24q0 119 -21 163q-33 69 -138 69q-137 0 -172 -201l-138 22q51 301 308 301
q170 0 242 -95q63 -83 63 -259v-485q0 -126 18 -246h-145zM144 1509h89q13 -145 193 -145t193 145h90q-21 -272 -283 -272q-264 0 -282 272zM344 -323v182h162v-182h-162z" />
    <glyph glyph-name="glyph305" unicode="&#x1eb8;" horiz-adv-x="854" 
d="M133 0v1481h666v-138h-514v-509h377v-136h-377v-561h532v-137h-684zM382 -323v182h162v-182h-162z" />
    <glyph glyph-name="glyph306" unicode="&#x1eb9;" horiz-adv-x="780" 
d="M564 348h134q-8 -158 -73 -256q-79 -119 -226 -119q-323 0 -323 557t323 557q308 0 308 -491q0 -60 -3 -84h-484q1 -170 22 -253q39 -159 157 -159q155 0 165 248zM221 631h340v41q0 293 -164 293t-176 -334zM326 -323v182h162v-182h-162z" />
    <glyph glyph-name="glyph307" unicode="&#x1eba;" horiz-adv-x="854" 
d="M133 0v1481h666v-138h-514v-509h377v-136h-377v-561h532v-137h-684zM522 1549h-101v14q0 77 47.5 148.5t47.5 117.5q0 73 -48 73q-50 0 -55 -74l-81 39q4 54 46 93.5t96 39.5q70 0 111.5 -49.5t41.5 -120.5q0 -59 -52.5 -129.5t-52.5 -121.5v-30z" />
    <glyph glyph-name="glyph308" unicode="&#x1ebb;" horiz-adv-x="780" 
d="M564 348h134q-8 -158 -73 -256q-79 -119 -226 -119q-323 0 -323 557t323 557q308 0 308 -491q0 -60 -3 -84h-484q1 -170 22 -253q39 -159 157 -159q155 0 165 248zM221 631h340v41q0 293 -164 293t-176 -334zM447 1181h-101v14q0 77 47.5 148.5t47.5 117.5q0 73 -48 73
q-50 0 -55 -74l-81 39q4 54 46 93.5t96 39.5q70 0 111.5 -49.5t41.5 -120.5q0 -59 -52.5 -129.5t-52.5 -121.5v-30z" />
    <glyph glyph-name="glyph309" unicode="&#x1ebc;" horiz-adv-x="854" 
d="M133 0v1481h666v-138h-514v-509h377v-136h-377v-561h532v-137h-684zM760 1888q-50 -192 -199 -192q-35 0 -99 23.5t-99 23.5q-68 0 -97 -64h-88q45 187 199 187q35 0 99 -23.5t99 -23.5q73 0 97 69h88z" />
    <glyph glyph-name="glyph310" unicode="&#x1ebd;" horiz-adv-x="780" 
d="M564 348h134q-8 -158 -73 -256q-79 -119 -226 -119q-323 0 -323 557t323 557q308 0 308 -491q0 -60 -3 -84h-484q1 -170 22 -253q39 -159 157 -159q155 0 165 248zM221 631h340v41q0 293 -164 293t-176 -334zM689 1466q-50 -192 -199 -192q-35 0 -99 23.5t-99 23.5
q-68 0 -97 -64h-88q45 187 199 187q35 0 99 -23.5t99 -23.5q73 0 97 69h88z" />
    <glyph glyph-name="glyph311" unicode="&#x1ebe;" horiz-adv-x="854" 
d="M133 0v1481h666v-138h-514v-509h377v-136h-377v-561h532v-137h-684zM174 1550l197 350h178l197 -350h-107l-178 244l-180 -244h-107zM235 1940l209 350h178l-281 -350h-106z" />
    <glyph glyph-name="glyph312" unicode="&#x1ebf;" horiz-adv-x="780" 
d="M564 348h134q-8 -158 -73 -256q-79 -119 -226 -119q-323 0 -323 557t323 557q308 0 308 -491q0 -60 -3 -84h-484q1 -170 22 -253q39 -159 157 -159q155 0 165 248zM221 631h340v41q0 293 -164 293t-176 -334zM119 1198l197 350h178l197 -350h-107l-178 244l-180 -244
h-107zM180 1588l209 350h178l-281 -350h-106z" />
    <glyph glyph-name="glyph313" unicode="&#x1ec0;" horiz-adv-x="854" 
d="M133 0v1481h666v-138h-514v-509h377v-136h-377v-561h532v-137h-684zM174 1550l197 350h178l197 -350h-107l-178 244l-180 -244h-107zM685 1940h-106l-281 350h178z" />
    <glyph glyph-name="glyph314" unicode="&#x1ec1;" horiz-adv-x="780" 
d="M564 348h134q-8 -158 -73 -256q-79 -119 -226 -119q-323 0 -323 557t323 557q308 0 308 -491q0 -60 -3 -84h-484q1 -170 22 -253q39 -159 157 -159q155 0 165 248zM221 631h340v41q0 293 -164 293t-176 -334zM119 1198l197 350h178l197 -350h-107l-178 244l-180 -244
h-107zM630 1588h-106l-281 350h178z" />
    <glyph glyph-name="glyph315" unicode="&#x1ec2;" horiz-adv-x="854" 
d="M133 0v1481h666v-138h-514v-509h377v-136h-377v-561h532v-137h-684zM174 1550l197 350h178l197 -350h-107l-178 244l-180 -244h-107zM716 1873h-101v14q0 77 47.5 148.5t47.5 117.5q0 73 -48 73q-50 0 -55 -74l-81 39q4 54 46 93.5t96 39.5q70 0 111.5 -49.5t41.5 -120.5
q0 -59 -52.5 -129.5t-52.5 -121.5v-30z" />
    <glyph glyph-name="glyph316" unicode="&#x1ec3;" horiz-adv-x="780" 
d="M564 348h134q-8 -158 -73 -256q-79 -119 -226 -119q-323 0 -323 557t323 557q308 0 308 -491q0 -60 -3 -84h-484q1 -170 22 -253q39 -159 157 -159q155 0 165 248zM221 631h340v41q0 293 -164 293t-176 -334zM119 1198l197 350h178l197 -350h-107l-178 244l-180 -244
h-107zM662 1521h-101v14q0 77 47.5 148.5t47.5 117.5q0 73 -48 73q-50 0 -55 -74l-81 39q4 54 46 93.5t96 39.5q70 0 111.5 -49.5t41.5 -120.5q0 -59 -52.5 -129.5t-52.5 -121.5v-30z" />
    <glyph glyph-name="glyph317" unicode="&#x1ec4;" horiz-adv-x="854" 
d="M133 0v1481h666v-138h-514v-509h377v-136h-377v-561h532v-137h-684zM174 1550l197 350h178l197 -350h-107l-178 244l-180 -244h-107zM817 2178q-50 -192 -199 -192q-35 0 -99 23.5t-99 23.5q-68 0 -97 -64h-88q45 187 199 187q35 0 99 -23.5t99 -23.5q73 0 97 69h88z" />
    <glyph glyph-name="glyph318" unicode="&#x1ec5;" horiz-adv-x="780" 
d="M564 348h134q-8 -158 -73 -256q-79 -119 -226 -119q-323 0 -323 557t323 557q308 0 308 -491q0 -60 -3 -84h-484q1 -170 22 -253q39 -159 157 -159q155 0 165 248zM221 631h340v41q0 293 -164 293t-176 -334zM119 1198l197 350h178l197 -350h-107l-178 244l-180 -244
h-107zM762 1826q-50 -192 -199 -192q-35 0 -99 23.5t-99 23.5q-68 0 -97 -64h-88q45 187 199 187q35 0 99 -23.5t99 -23.5q73 0 97 69h88z" />
    <glyph glyph-name="glyph319" unicode="&#x1ec6;" horiz-adv-x="854" 
d="M133 0v1481h666v-138h-514v-509h377v-136h-377v-561h532v-137h-684zM174 1550l197 350h178l197 -350h-107l-178 244l-180 -244h-107zM382 -323v182h162v-182h-162z" />
    <glyph glyph-name="glyph320" unicode="&#x1ec7;" horiz-adv-x="780" 
d="M564 348h134q-8 -158 -73 -256q-79 -119 -226 -119q-323 0 -323 557t323 557q308 0 308 -491q0 -60 -3 -84h-484q1 -170 22 -253q39 -159 157 -159q155 0 165 248zM221 631h340v41q0 293 -164 293t-176 -334zM119 1198l197 350h178l197 -350h-107l-178 244l-180 -244
h-107zM326 -323v182h162v-182h-162z" />
    <glyph glyph-name="glyph321" unicode="&#x1ec8;" horiz-adv-x="428" 
d="M137 0v1481h152v-1481h-152zM263 1549h-101v14q0 77 47.5 148.5t47.5 117.5q0 73 -48 73q-50 0 -55 -74l-81 39q4 54 46 93.5t96 39.5q70 0 111.5 -49.5t41.5 -120.5q0 -59 -52.5 -129.5t-52.5 -121.5v-30z" />
    <glyph glyph-name="glyph322" unicode="&#x1ec9;" horiz-adv-x="389" 
d="M123 0v1063h143v-1063h-143zM249 1181h-101v14q0 77 47.5 148.5t47.5 117.5q0 73 -48 73q-50 0 -55 -74l-81 39q4 54 46 93.5t96 39.5q70 0 111.5 -49.5t41.5 -120.5q0 -59 -52.5 -129.5t-52.5 -121.5v-30z" />
    <glyph glyph-name="glyph323" unicode="&#x1eca;" horiz-adv-x="428" 
d="M137 0v1481h152v-1481h-152zM133 -323v182h162v-182h-162z" />
    <glyph glyph-name="glyph324" unicode="&#x1ecb;" horiz-adv-x="389" 
d="M123 1313v168h143v-168h-143zM123 0v1063h143v-1063h-143zM115 -323v182h162v-182h-162z" />
    <glyph glyph-name="glyph325" unicode="&#x1ecc;" horiz-adv-x="985" 
d="M492 -29q-408 0 -408 770q0 768 408 768q409 0 409 -768q0 -770 -409 -770zM492 1372q-248 0 -248 -596q0 -360 59 -509q61 -156 189 -156q247 0 247 630q0 631 -247 631zM415 -323v182h162v-182h-162z" />
    <glyph glyph-name="glyph326" unicode="&#x1ecd;" horiz-adv-x="782" 
d="M217 530q0 -177 19 -261q39 -169 157 -169q170 0 170 430q0 433 -170 433q-118 0 -157 -170q-19 -85 -19 -263zM72 530q0 557 323 557q316 0 316 -557t-316 -557q-323 0 -323 557zM313 -323v182h162v-182h-162z" />
    <glyph glyph-name="glyph327" unicode="&#x1ece;" horiz-adv-x="985" 
d="M492 -29q-408 0 -408 770q0 768 408 768q409 0 409 -768q0 -770 -409 -770zM492 1372q-248 0 -248 -596q0 -360 59 -509q61 -156 189 -156q247 0 247 630q0 631 -247 631zM542 1549h-101v14q0 77 47.5 148.5t47.5 117.5q0 73 -48 73q-50 0 -55 -74l-81 39q4 54 46 93.5
t96 39.5q70 0 111.5 -49.5t41.5 -120.5q0 -59 -52.5 -129.5t-52.5 -121.5v-30z" />
    <glyph glyph-name="glyph328" unicode="&#x1ecf;" horiz-adv-x="782" 
d="M217 530q0 -177 19 -261q39 -169 157 -169q170 0 170 430q0 433 -170 433q-118 0 -157 -170q-19 -85 -19 -263zM72 530q0 557 323 557q316 0 316 -557t-316 -557q-323 0 -323 557zM447 1181h-101v14q0 77 47.5 148.5t47.5 117.5q0 73 -48 73q-50 0 -55 -74l-81 39
q4 54 46 93.5t96 39.5q70 0 111.5 -49.5t41.5 -120.5q0 -59 -52.5 -129.5t-52.5 -121.5v-30z" />
    <glyph glyph-name="glyph329" unicode="&#x1ed0;" horiz-adv-x="985" 
d="M492 -29q-408 0 -408 770q0 768 408 768q409 0 409 -768q0 -770 -409 -770zM492 1372q-248 0 -248 -596q0 -360 59 -509q61 -156 189 -156q247 0 247 630q0 631 -247 631zM204 1550l197 350h178l197 -350h-107l-178 244l-180 -244h-107zM265 1940l209 350h178l-281 -350
h-106z" />
    <glyph glyph-name="glyph330" unicode="&#x1ed1;" horiz-adv-x="782" 
d="M217 530q0 -177 19 -261q39 -169 157 -169q170 0 170 430q0 433 -170 433q-118 0 -157 -170q-19 -85 -19 -263zM72 530q0 557 323 557q316 0 316 -557t-316 -557q-323 0 -323 557zM104 1198l197 350h178l197 -350h-107l-178 244l-180 -244h-107zM165 1588l209 350h178
l-281 -350h-106z" />
    <glyph glyph-name="glyph331" unicode="&#x1ed2;" horiz-adv-x="985" 
d="M492 -29q-408 0 -408 770q0 768 408 768q409 0 409 -768q0 -770 -409 -770zM492 1372q-248 0 -248 -596q0 -360 59 -509q61 -156 189 -156q247 0 247 630q0 631 -247 631zM204 1550l197 350h178l197 -350h-107l-178 244l-180 -244h-107zM715 1940h-106l-281 350h178z" />
    <glyph glyph-name="glyph332" unicode="&#x1ed3;" horiz-adv-x="782" 
d="M217 530q0 -177 19 -261q39 -169 157 -169q170 0 170 430q0 433 -170 433q-118 0 -157 -170q-19 -85 -19 -263zM72 530q0 557 323 557q316 0 316 -557t-316 -557q-323 0 -323 557zM104 1198l197 350h178l197 -350h-107l-178 244l-180 -244h-107zM615 1588h-106l-281 350
h178z" />
    <glyph glyph-name="glyph333" unicode="&#x1ed4;" horiz-adv-x="985" 
d="M492 -29q-408 0 -408 770q0 768 408 768q409 0 409 -768q0 -770 -409 -770zM492 1372q-248 0 -248 -596q0 -360 59 -509q61 -156 189 -156q247 0 247 630q0 631 -247 631zM204 1550l197 350h178l197 -350h-107l-178 244l-180 -244h-107zM746 1873h-101v14
q0 77 47.5 148.5t47.5 117.5q0 73 -48 73q-50 0 -55 -74l-81 39q4 54 46 93.5t96 39.5q70 0 111.5 -49.5t41.5 -120.5q0 -59 -52.5 -129.5t-52.5 -121.5v-30z" />
    <glyph glyph-name="glyph334" unicode="&#x1ed5;" horiz-adv-x="782" 
d="M217 530q0 -177 19 -261q39 -169 157 -169q170 0 170 430q0 433 -170 433q-118 0 -157 -170q-19 -85 -19 -263zM72 530q0 557 323 557q316 0 316 -557t-316 -557q-323 0 -323 557zM104 1198l197 350h178l197 -350h-107l-178 244l-180 -244h-107zM647 1521h-101v14
q0 77 47.5 148.5t47.5 117.5q0 73 -48 73q-50 0 -55 -74l-81 39q4 54 46 93.5t96 39.5q70 0 111.5 -49.5t41.5 -120.5q0 -59 -52.5 -129.5t-52.5 -121.5v-30z" />
    <glyph glyph-name="glyph335" unicode="&#x1ed6;" horiz-adv-x="985" 
d="M492 -29q-408 0 -408 770q0 768 408 768q409 0 409 -768q0 -770 -409 -770zM492 1372q-248 0 -248 -596q0 -360 59 -509q61 -156 189 -156q247 0 247 630q0 631 -247 631zM204 1550l197 350h178l197 -350h-107l-178 244l-180 -244h-107zM847 2178q-50 -192 -199 -192
q-35 0 -99 23.5t-99 23.5q-68 0 -97 -64h-88q45 187 199 187q35 0 99 -23.5t99 -23.5q73 0 97 69h88z" />
    <glyph glyph-name="glyph336" unicode="&#x1ed7;" horiz-adv-x="782" 
d="M217 530q0 -177 19 -261q39 -169 157 -169q170 0 170 430q0 433 -170 433q-118 0 -157 -170q-19 -85 -19 -263zM72 530q0 557 323 557q316 0 316 -557t-316 -557q-323 0 -323 557zM104 1198l197 350h178l197 -350h-107l-178 244l-180 -244h-107zM747 1826
q-50 -192 -199 -192q-35 0 -99 23.5t-99 23.5q-68 0 -97 -64h-88q45 187 199 187q35 0 99 -23.5t99 -23.5q73 0 97 69h88z" />
    <glyph glyph-name="glyph337" unicode="&#x1ed8;" horiz-adv-x="985" 
d="M492 -29q-408 0 -408 770q0 768 408 768q409 0 409 -768q0 -770 -409 -770zM492 1372q-248 0 -248 -596q0 -360 59 -509q61 -156 189 -156q247 0 247 630q0 631 -247 631zM204 1550l197 350h178l197 -350h-107l-178 244l-180 -244h-107zM415 -323v182h162v-182h-162z" />
    <glyph glyph-name="glyph338" unicode="&#x1ed9;" horiz-adv-x="782" 
d="M217 530q0 -177 19 -261q39 -169 157 -169q170 0 170 430q0 433 -170 433q-118 0 -157 -170q-19 -85 -19 -263zM72 530q0 557 323 557q316 0 316 -557t-316 -557q-323 0 -323 557zM104 1198l197 350h178l197 -350h-107l-178 244l-180 -244h-107zM313 -323v182h162v-182
h-162z" />
    <glyph glyph-name="glyph339" unicode="&#x1eda;" horiz-adv-x="985" 
d="M492 -29q-408 0 -408 770q0 768 408 768q409 0 409 -768q0 -770 -409 -770zM492 1372q-248 0 -248 -596q0 -360 59 -509q61 -156 189 -156q247 0 247 630q0 631 -247 631zM770 1442v169h150v-178l-151 -269v113l69 165h-68zM357 1620l209 350h178l-281 -350h-106z" />
    <glyph glyph-name="glyph340" unicode="&#x1edb;" horiz-adv-x="782" 
d="M217 530q0 -177 19 -261q39 -169 157 -169q170 0 170 430q0 433 -170 433q-118 0 -157 -170q-19 -85 -19 -263zM72 530q0 557 323 557q316 0 316 -557t-316 -557q-323 0 -323 557zM603 1089v169h150v-178l-151 -269v113l69 165h-68zM254 1198l209 350h178l-281 -350h-106
z" />
    <glyph glyph-name="glyph341" unicode="&#x1edc;" horiz-adv-x="985" 
d="M492 -29q-408 0 -408 770q0 768 408 768q409 0 409 -768q0 -770 -409 -770zM492 1372q-248 0 -248 -596q0 -360 59 -509q61 -156 189 -156q247 0 247 630q0 631 -247 631zM770 1442v169h150v-178l-151 -269v113l69 165h-68zM631 1620h-106l-281 350h178z" />
    <glyph glyph-name="glyph342" unicode="&#x1edd;" horiz-adv-x="782" 
d="M217 530q0 -177 19 -261q39 -169 157 -169q170 0 170 430q0 433 -170 433q-118 0 -157 -170q-19 -85 -19 -263zM72 530q0 557 323 557q316 0 316 -557t-316 -557q-323 0 -323 557zM603 1089v169h150v-178l-151 -269v113l69 165h-68zM528 1198h-106l-281 350h178z" />
    <glyph glyph-name="glyph343" unicode="&#x1ede;" horiz-adv-x="985" 
d="M492 -29q-408 0 -408 770q0 768 408 768q409 0 409 -768q0 -770 -409 -770zM492 1372q-248 0 -248 -596q0 -360 59 -509q61 -156 189 -156q247 0 247 630q0 631 -247 631zM770 1442v169h150v-178l-151 -269v113l69 165h-68zM542 1549h-101v14q0 77 47.5 148.5t47.5 117.5
q0 73 -48 73q-50 0 -55 -74l-81 39q4 54 46 93.5t96 39.5q70 0 111.5 -49.5t41.5 -120.5q0 -59 -52.5 -129.5t-52.5 -121.5v-30z" />
    <glyph glyph-name="glyph344" unicode="&#x1edf;" horiz-adv-x="782" 
d="M217 530q0 -177 19 -261q39 -169 157 -169q170 0 170 430q0 433 -170 433q-118 0 -157 -170q-19 -85 -19 -263zM72 530q0 557 323 557q316 0 316 -557t-316 -557q-323 0 -323 557zM603 1089v169h150v-178l-151 -269v113l69 165h-68zM447 1181h-101v14q0 77 47.5 148.5
t47.5 117.5q0 73 -48 73q-50 0 -55 -74l-81 39q4 54 46 93.5t96 39.5q70 0 111.5 -49.5t41.5 -120.5q0 -59 -52.5 -129.5t-52.5 -121.5v-30z" />
    <glyph glyph-name="glyph345" unicode="&#x1ee0;" horiz-adv-x="985" 
d="M492 -29q-408 0 -408 770q0 768 408 768q409 0 409 -768q0 -770 -409 -770zM492 1372q-248 0 -248 -596q0 -360 59 -509q61 -156 189 -156q247 0 247 630q0 631 -247 631zM770 1442v169h150v-178l-151 -269v113l69 165h-68zM785 1888q-50 -192 -199 -192q-35 0 -99 23.5
t-99 23.5q-68 0 -97 -64h-88q45 187 199 187q35 0 99 -23.5t99 -23.5q73 0 97 69h88z" />
    <glyph glyph-name="glyph346" unicode="&#x1ee1;" horiz-adv-x="782" 
d="M217 530q0 -177 19 -261q39 -169 157 -169q170 0 170 430q0 433 -170 433q-118 0 -157 -170q-19 -85 -19 -263zM72 530q0 557 323 557q316 0 316 -557t-316 -557q-323 0 -323 557zM603 1089v169h150v-178l-151 -269v113l69 165h-68zM682 1466q-50 -192 -199 -192
q-35 0 -99 23.5t-99 23.5q-68 0 -97 -64h-88q45 187 199 187q35 0 99 -23.5t99 -23.5q73 0 97 69h88z" />
    <glyph glyph-name="glyph347" unicode="&#x1ee2;" horiz-adv-x="985" 
d="M492 -29q-408 0 -408 770q0 768 408 768q409 0 409 -768q0 -770 -409 -770zM492 1372q-248 0 -248 -596q0 -360 59 -509q61 -156 189 -156q247 0 247 630q0 631 -247 631zM770 1442v169h150v-178l-151 -269v113l69 165h-68zM415 -323v182h162v-182h-162z" />
    <glyph glyph-name="glyph348" unicode="&#x1ee3;" horiz-adv-x="782" 
d="M217 530q0 -177 19 -261q39 -169 157 -169q170 0 170 430q0 433 -170 433q-118 0 -157 -170q-19 -85 -19 -263zM72 530q0 557 323 557q316 0 316 -557t-316 -557q-323 0 -323 557zM603 1089v169h150v-178l-151 -269v113l69 165h-68zM313 -323v182h162v-182h-162z" />
    <glyph glyph-name="glyph349" unicode="&#x1ee4;" horiz-adv-x="1004" 
d="M129 518v963h152v-949q0 -271 48 -347q49 -79 173 -79q121 0 171 81q48 77 48 345v949h151v-963q0 -215 -21 -297q-40 -158 -180 -217q-76 -33 -169 -33q-95 0 -171 33q-141 60 -181 217q-21 81 -21 297zM415 -323v182h162v-182h-162z" />
    <glyph glyph-name="glyph350" unicode="&#x1ee5;" horiz-adv-x="846" 
d="M721 1063v-1063h-141v111q-123 -138 -252 -138q-205 0 -205 273v817h141v-768q0 -93 16 -132q26 -65 103 -65q111 0 197 140v825h141zM343 -323v182h162v-182h-162z" />
    <glyph glyph-name="glyph351" unicode="&#x1ee6;" horiz-adv-x="1004" 
d="M129 518v963h152v-949q0 -271 48 -347q49 -79 173 -79q121 0 171 81q48 77 48 345v949h151v-963q0 -215 -21 -297q-40 -158 -180 -217q-76 -33 -169 -33q-95 0 -171 33q-141 60 -181 217q-21 81 -21 297zM560 1549h-101v14q0 77 47.5 148.5t47.5 117.5q0 73 -48 73
q-50 0 -55 -74l-81 39q4 54 46 93.5t96 39.5q70 0 111.5 -49.5t41.5 -120.5q0 -59 -52.5 -129.5t-52.5 -121.5v-30z" />
    <glyph glyph-name="glyph352" unicode="&#x1ee7;" horiz-adv-x="846" 
d="M721 1063v-1063h-141v111q-123 -138 -252 -138q-205 0 -205 273v817h141v-768q0 -93 16 -132q26 -65 103 -65q111 0 197 140v825h141zM472 1181h-101v14q0 77 47.5 148.5t47.5 117.5q0 73 -48 73q-50 0 -55 -74l-81 39q4 54 46 93.5t96 39.5q70 0 111.5 -49.5
t41.5 -120.5q0 -59 -52.5 -129.5t-52.5 -121.5v-30z" />
    <glyph glyph-name="glyph353" unicode="&#x1ee8;" horiz-adv-x="1027" 
d="M129 518v963h152v-949q0 -271 48 -347q49 -79 173 -79q121 0 171 81q48 77 48 345v949h151v-963q0 -215 -21 -297q-40 -158 -180 -217q-76 -33 -169 -33q-95 0 -171 33q-141 60 -181 217q-21 81 -21 297zM850 1442v169h150v-178l-151 -269v113l69 165h-68zM365 1620
l209 350h178l-281 -350h-106z" />
    <glyph glyph-name="glyph354" unicode="&#x1ee9;" horiz-adv-x="878" 
d="M721 1063v-1063h-141v111q-123 -138 -252 -138q-205 0 -205 273v817h141v-768q0 -93 16 -132q26 -65 103 -65q111 0 197 140v825h141zM709 1089v169h150v-178l-151 -269v113l69 165h-68zM287 1198l209 350h178l-281 -350h-106z" />
    <glyph glyph-name="glyph355" unicode="&#x1eea;" horiz-adv-x="1027" 
d="M129 518v963h152v-949q0 -271 48 -347q49 -79 173 -79q121 0 171 81q48 77 48 345v949h151v-963q0 -215 -21 -297q-40 -158 -180 -217q-76 -33 -169 -33q-95 0 -171 33q-141 60 -181 217q-21 81 -21 297zM850 1442v169h150v-178l-151 -269v113l69 165h-68zM639 1620h-106
l-281 350h178z" />
    <glyph glyph-name="glyph356" unicode="&#x1eeb;" horiz-adv-x="878" 
d="M721 1063v-1063h-141v111q-123 -138 -252 -138q-205 0 -205 273v817h141v-768q0 -93 16 -132q26 -65 103 -65q111 0 197 140v825h141zM709 1089v169h150v-178l-151 -269v113l69 165h-68zM561 1198h-106l-281 350h178z" />
    <glyph glyph-name="glyph357" unicode="&#x1eec;" horiz-adv-x="1027" 
d="M129 518v963h152v-949q0 -271 48 -347q49 -79 173 -79q121 0 171 81q48 77 48 345v949h151v-963q0 -215 -21 -297q-40 -158 -180 -217q-76 -33 -169 -33q-95 0 -171 33q-141 60 -181 217q-21 81 -21 297zM850 1442v169h150v-178l-151 -269v113l69 165h-68zM560 1549h-101
v14q0 77 47.5 148.5t47.5 117.5q0 73 -48 73q-50 0 -55 -74l-81 39q4 54 46 93.5t96 39.5q70 0 111.5 -49.5t41.5 -120.5q0 -59 -52.5 -129.5t-52.5 -121.5v-30z" />
    <glyph glyph-name="glyph358" unicode="&#x1eed;" horiz-adv-x="878" 
d="M721 1063v-1063h-141v111q-123 -138 -252 -138q-205 0 -205 273v817h141v-768q0 -93 16 -132q26 -65 103 -65q111 0 197 140v825h141zM709 1089v169h150v-178l-151 -269v113l69 165h-68zM472 1181h-101v14q0 77 47.5 148.5t47.5 117.5q0 73 -48 73q-50 0 -55 -74l-81 39
q4 54 46 93.5t96 39.5q70 0 111.5 -49.5t41.5 -120.5q0 -59 -52.5 -129.5t-52.5 -121.5v-30z" />
    <glyph glyph-name="glyph359" unicode="&#x1eee;" horiz-adv-x="1027" 
d="M129 518v963h152v-949q0 -271 48 -347q49 -79 173 -79q121 0 171 81q48 77 48 345v949h151v-963q0 -215 -21 -297q-40 -158 -180 -217q-76 -33 -169 -33q-95 0 -171 33q-141 60 -181 217q-21 81 -21 297zM850 1442v169h150v-178l-151 -269v113l69 165h-68zM795 1888
q-50 -192 -199 -192q-35 0 -99 23.5t-99 23.5q-68 0 -97 -64h-88q45 187 199 187q35 0 99 -23.5t99 -23.5q73 0 97 69h88z" />
    <glyph glyph-name="glyph360" unicode="&#x1eef;" horiz-adv-x="878" 
d="M721 1063v-1063h-141v111q-123 -138 -252 -138q-205 0 -205 273v817h141v-768q0 -93 16 -132q26 -65 103 -65q111 0 197 140v825h141zM709 1089v169h150v-178l-151 -269v113l69 165h-68zM722 1466q-50 -192 -199 -192q-35 0 -99 23.5t-99 23.5q-68 0 -97 -64h-88
q45 187 199 187q35 0 99 -23.5t99 -23.5q73 0 97 69h88z" />
    <glyph glyph-name="glyph361" unicode="&#x1ef0;" horiz-adv-x="1027" 
d="M129 518v963h152v-949q0 -271 48 -347q49 -79 173 -79q121 0 171 81q48 77 48 345v949h151v-963q0 -215 -21 -297q-40 -158 -180 -217q-76 -33 -169 -33q-95 0 -171 33q-141 60 -181 217q-21 81 -21 297zM850 1442v169h150v-178l-151 -269v113l69 165h-68zM415 -323v182
h162v-182h-162z" />
    <glyph glyph-name="glyph362" unicode="&#x1ef1;" horiz-adv-x="878" 
d="M721 1063v-1063h-141v111q-123 -138 -252 -138q-205 0 -205 273v817h141v-768q0 -93 16 -132q26 -65 103 -65q111 0 197 140v825h141zM709 1089v169h150v-178l-151 -269v113l69 165h-68zM343 -323v182h162v-182h-162z" />
    <glyph glyph-name="glyph363" unicode="&#x1ef2;" horiz-adv-x="772" 
d="M309 0v637l-332 844h158l254 -674l248 674h156l-328 -844v-637h-156zM499 1620h-106l-281 350h178z" />
    <glyph glyph-name="glyph364" unicode="&#x1ef3;" horiz-adv-x="711" 
d="M18 1063h148l184 -801l180 801h142l-248 -1059q-41 -175 -108 -257q-87 -105 -246 -105q-31 0 -45 2v131q12 -2 36 -2q182 0 228 239zM491 1198h-106l-281 350h178z" />
    <glyph glyph-name="glyph365" unicode="&#x1ef4;" horiz-adv-x="772" 
d="M309 0v637l-332 844h158l254 -674l248 674h156l-328 -844v-637h-156zM305 -323v182h162v-182h-162z" />
    <glyph glyph-name="glyph366" unicode="&#x1ef5;" horiz-adv-x="711" 
d="M18 1063h148l184 -801l180 801h142l-248 -1059q-41 -175 -108 -257q-87 -105 -246 -105q-31 0 -45 2v131q12 -2 36 -2q182 0 228 239zM445 -323v182h162v-182h-162z" />
    <glyph glyph-name="glyph367" unicode="&#x1ef6;" horiz-adv-x="772" 
d="M309 0v637l-332 844h158l254 -674l248 674h156l-328 -844v-637h-156zM450 1549h-101v14q0 77 47.5 148.5t47.5 117.5q0 73 -48 73q-50 0 -55 -74l-81 39q4 54 46 93.5t96 39.5q70 0 111.5 -49.5t41.5 -120.5q0 -59 -52.5 -129.5t-52.5 -121.5v-30z" />
    <glyph glyph-name="glyph368" unicode="&#x1ef7;" horiz-adv-x="711" 
d="M18 1063h148l184 -801l180 801h142l-248 -1059q-41 -175 -108 -257q-87 -105 -246 -105q-31 0 -45 2v131q12 -2 36 -2q182 0 228 239zM402 1181h-101v14q0 77 47.5 148.5t47.5 117.5q0 73 -48 73q-50 0 -55 -74l-81 39q4 54 46 93.5t96 39.5q70 0 111.5 -49.5
t41.5 -120.5q0 -59 -52.5 -129.5t-52.5 -121.5v-30z" />
    <glyph glyph-name="glyph369" unicode="&#x1ef8;" horiz-adv-x="772" 
d="M309 0v637l-332 844h158l254 -674l248 674h156l-328 -844v-637h-156zM682 1888q-50 -192 -199 -192q-35 0 -99 23.5t-99 23.5q-68 0 -97 -64h-88q45 187 199 187q35 0 99 -23.5t99 -23.5q73 0 97 69h88z" />
    <glyph glyph-name="glyph370" unicode="&#x1ef9;" horiz-adv-x="711" 
d="M18 1063h148l184 -801l180 801h142l-248 -1059q-41 -175 -108 -257q-87 -105 -246 -105q-31 0 -45 2v131q12 -2 36 -2q182 0 228 239zM642 1466q-50 -192 -199 -192q-35 0 -99 23.5t-99 23.5q-68 0 -97 -64h-88q45 187 199 187q35 0 99 -23.5t99 -23.5q73 0 97 69h88z
" />
    </font>
</defs>
</svg>
